# Apple ModelIO OBJ File: MossyRock2
mtllib MossyRock2.mtl
g pCube1_standardSurface2SG
v 0.633023 0.540882 0.006133
v 1.87904 0.225276 0.006133
v 1.87904 0.540882 0.006133
v 0.633023 0.225276 -1.78056
v 0.633023 0.321534 -1.78056
v 1.43349 0.225276 -1.78056
v 2.32567 0.540882 -0.440496
v 2.32567 0.225276 -0.440496
v 2.13641 0.225276 -1.33393
v 2.32567 0.540882 -1.33393
v 0.186393 0.225276 -0.440496
v 0.186393 0.540882 -0.440496
v 0.186393 0.540882 -1.33393
v 1.87904 0.885589 0.006133
v 1.07172 0.885589 0.006133
v 2.32567 0.885589 -1.33393
v 0.186393 0.885589 -0.879193
v 0.186393 0.885589 -1.33393
v 1.87904 0.321534 -1.78056
v 2.04692 0.540882 -1.61268
v 1.25603 0.540882 -1.78056
v 2.08223 0.885589 -1.57738
v 0.429836 0.885589 -1.57738
v 0.465141 0.540882 -1.61268
v 0.667263 1.08019 -0.837126
v 1.15458 1.08019 -0.349811
v 1.59896 1.08019 -0.349811
v 1.8448 1.08019 -1.08743
v 1.7108 1.08019 -1.27166
v 0.801263 1.08019 -1.27166
v 0.667263 1.08019 -1.08743
v 1.2404 1.24457 -0.815113
vn -0.465637 -0.009073 0.884929
vn 0.077986 -0.958558 0.274014
vn 0.272841 0 0.962059
vn -0.077927 -0.994786 -0.065783
vn -0.333406 0.20752 -0.919661
vn 0.003896 -0.984697 -0.17423
vn 0.937756 0.203205 0.281641
vn 0.701477 -0.688461 0.18426
vn 0.20908 -0.975475 -0.068797
vn 0.941671 -0.18237 -0.282837
vn -0.198022 -0.959603 0.199874
vn -0.723175 0.128354 0.678633
vn -0.892361 -0.359169 -0.273294
vn 0.355956 0.620687 0.6986
vn -0.214554 0.532345 0.818887
vn 0.722201 0.683855 -0.103769
vn -0.761392 0.599624 0.24644
vn -0.8355 0.490827 -0.247039
vn 0.369676 -0.309643 -0.876049
vn 0.568597 -0.045897 -0.821335
vn 0 0.31209 -0.950052
vn 0.264531 0.653503 -0.709195
vn -0.264531 0.653503 -0.709195
vn -0.49059 0.101634 -0.865443
vn -0.363825 0.893935 0.261747
vn -0.21671 0.890333 0.400429
vn 0.273763 0.925977 0.260038
vn 0.384017 0.921408 0.059488
vn 0.055564 0.890684 -0.451215
vn -0.055201 0.890233 -0.452149
vn -0.312702 0.944946 -0.096409
vn 0.017503 0.999774 -0.012107
vt 0.431745 0.286086
vt 0.621865 0.514455
vt 0.582738 0.56718
vt 0.778716 0.095119
vt 0.787227 0.082144
vt 0.881724 0.215476
vt 0.76559 0.60014
vt 0.752714 0.540942
vt 0.903661 0.397525
vt 0.964535 0.453144
vt 0.49757 0.150832
vt 0.451909 0.113531
vt 0.66079 0.012313
vt 0.447693 0.987206
vt 0.12097 0.996876
vt 0.150898 0.929491
vt 0.33352 0.937942
vt 0.016046 0.847167
vt 0.068966 0.633817
vt 0.60213 0.620259
vt 0.574699 0.876629
vt 0.53399 0.752619
vt 0.529515 0.650559
vt 0.937796 0.290995
vt 0.994825 0.333503
vt 0.096596 0.515823
vt 0.304425 0.488811
vt 0.118064 0.577392
vt 0.486805 0.589658
vt 0.511405 0.528244
vt 0.007015 0.605588
vt 0.920171 0.135253
vt 0.76022 0.021513
vt 0.422982 0.754794
vt 0.315586 0.85258
vt 0.221438 0.849285
vt 0.175101 0.690668
vt 0.203886 0.653063
vt 0.398905 0.661677
vt 0.425305 0.702005
vt 0.300895 0.75283
usemtl standardSurface2SG
f 1/1/1 2/2/2 3/3/3
f 4/4/4 5/5/5 6/6/6
f 7/7/7 8/8/8 9/9/9
f 7/7/7 9/9/9 10/10/10
f 11/11/11 2/2/2 12/12/12
f 2/2/2 1/1/1 12/12/12
f 2/2/2 8/8/8 7/7/7
f 2/2/2 7/7/7 3/3/3
f 13/13/13 4/4/4 11/11/11
f 1/14/1 3/15/3 14/16/14
f 1/14/1 14/16/14 15/17/15
f 14/16/14 7/18/7 16/19/16
f 13/20/13 12/21/12 17/22/17
f 13/20/13 17/22/17 18/23/18
f 19/24/19 20/25/20 9/9/9
f 20/25/20 10/10/10 9/9/9
f 1/14/1 15/17/15 17/22/17
f 1/14/1 17/22/17 12/21/12
f 20/26/20 21/27/21 22/28/22
f 22/28/22 21/27/21 23/29/23
f 21/27/21 24/30/24 23/29/23
f 10/31/10 20/26/20 22/28/22
f 10/31/10 22/28/22 16/19/16
f 23/29/23 24/30/24 13/20/13
f 23/29/23 13/20/13 18/23/18
f 20/25/20 19/24/19 21/32/21
f 21/32/21 5/5/5 24/33/24
f 3/15/3 7/18/7 14/16/14
f 7/18/7 10/31/10 16/19/16
f 17/22/17 15/17/15 25/34/25
f 15/17/15 26/35/26 25/34/25
f 15/17/15 14/16/14 27/36/27
f 15/17/15 27/36/27 26/35/26
f 14/16/14 16/19/16 28/37/28
f 14/16/14 28/37/28 27/36/27
f 16/19/16 22/28/22 29/38/29
f 16/19/16 29/38/29 28/37/28
f 22/28/22 23/29/23 30/39/30
f 22/28/22 30/39/30 29/38/29
f 23/29/23 18/23/18 30/39/30
f 18/23/18 31/40/31 30/39/30
f 18/23/18 17/22/17 25/34/25
f 18/23/18 25/34/25 31/40/31
f 13/13/13 24/33/24 5/5/5
f 13/13/13 5/5/5 4/4/4
f 11/11/11 4/4/4 2/2/2
f 13/13/13 11/11/11 12/12/12
f 25/34/25 26/35/26 32/41/32
f 26/35/26 27/36/27 32/41/32
f 27/36/27 28/37/28 32/41/32
f 28/37/28 29/38/29 32/41/32
f 29/38/29 30/39/30 32/41/32
f 30/39/30 31/40/31 32/41/32
f 31/40/31 25/34/25 32/41/32
f 19/24/19 9/9/9 6/6/6
f 6/6/6 5/5/5 21/32/21
f 6/6/6 21/32/21 19/24/19
f 2/2/2 9/9/9 8/8/8
f 2/2/2 4/4/4 6/6/6
f 2/2/2 6/6/6 9/9/9
s off
