# Apple ModelIO OBJ File: bottlecap
mtllib bottlecap.mtl
g pCylinder1_initialShadingGroup
v 64.0286 -19.0962 -62.5426
v 70.2045 -35.8396 -68.5752
v 43.5245 -35.8396 -87.9594
v 39.6956 -19.0962 -80.2216
v 15.0386 -19.0962 -88.2331
v 16.4892 -35.8396 -96.7437
v -16.4892 -35.8396 -96.7437
v -15.0386 -19.0962 -88.2331
v -39.6956 -19.0962 -80.2216
v -43.5245 -35.8396 -87.9594
v -64.0286 -19.0962 -62.5426
v -70.2046 -35.8396 -68.5752
v -79.2675 -19.0962 -41.5681
v -86.9133 -35.8396 -45.5776
v -88.5619 -19.0962 -12.9629
v -97.1041 -35.8396 -14.2133
v -88.5619 -19.0962 12.9629
v -97.1041 -35.8396 14.2133
v -86.9133 -35.8396 45.5776
v -79.2675 -19.0962 41.5681
v -64.0286 -19.0962 62.5426
v -70.2045 -35.8396 68.5752
v -43.5245 -35.8396 87.9594
v -39.6956 -19.0962 80.2215
v -15.0386 -19.0962 88.2331
v -16.4892 -35.8396 96.7437
v 15.0386 -19.0962 88.2331
v 16.4892 -35.8395 96.7437
v 39.6956 -19.0962 80.2215
v 43.5245 -35.8395 87.9594
v 70.2045 -35.8396 68.5752
v 64.0286 -19.0962 62.5426
v 79.2675 -19.0962 41.5681
v 86.9133 -35.8396 45.5776
v 88.5619 -19.0962 12.9629
v 97.1041 -35.8396 14.2133
v 88.5619 -19.0962 -12.9629
v 97.1041 -35.8396 -14.2133
v 86.9133 -35.8396 -45.5776
v 79.2674 -19.0962 -41.5681
v 87.2681 12.0427 -63.404
v 33.3335 12.0427 -102.59
v 80.9017 36.1282 -58.7785
v 30.9017 36.1282 -95.1057
v -33.3335 12.0427 -102.59
v -30.9017 36.1282 -95.1057
v -87.2682 12.0427 -63.404
v -80.9017 36.1282 -58.7785
v -107.869 12.0427 7e-06
v -100 36.1282 6e-06
v -87.2681 12.0427 63.404
v -80.9017 36.1282 58.7785
v -33.3335 12.0427 102.59
v -30.9017 36.1282 95.1057
v 33.3335 12.0427 102.59
v 30.9017 36.1282 95.1057
v 87.2681 12.0427 63.404
v 80.9017 36.1282 58.7785
v 107.869 12.0427 1e-06
v 100 36.1282 0
v 0 36.1282 0
v 42.1778 -11.5511 85.2379
v 68.0324 -11.5511 66.4534
v 35.203 -36.9795 108.344
v 15.979 -11.5511 93.7504
v 32.1592 -11.2347 98.9758
v 27.6535 -36.1169 85.1088
v 94.0997 -11.5511 13.7735
v 106.775 -11.2347 1e-06
v 92.1626 -36.9796 66.96
v 86.383 -11.2347 62.7609
v 84.2241 -11.5511 44.1674
v 72.3979 -36.1169 52.6001
v 94.0997 -11.5511 -13.7735
v 84.2241 -11.5511 -44.1674
v 113.919 -36.9796 1e-06
v 89.4887 -36.1169 0
v 68.0324 -11.5511 -66.4534
v 42.1778 -11.5511 -85.2379
v 92.1626 -36.9796 -66.96
v 86.383 -11.2347 -62.7609
v 72.3979 -36.1169 -52.6001
v 15.979 -11.5511 -93.7504
v -15.979 -11.5511 -93.7504
v 35.203 -36.9796 -108.344
v 32.9953 -11.2347 -101.549
v 27.6535 -36.1169 -85.1088
v -42.1778 -11.5511 -85.2379
v -68.0324 -11.5511 -66.4534
v -35.203 -36.9796 -108.344
v -32.9954 -11.2347 -101.549
v -27.6535 -36.1169 -85.1088
v -94.0997 -11.5511 -13.7735
v -106.775 -11.2347 7e-06
v -92.1626 -36.9796 -66.96
v -86.383 -11.2347 -62.7609
v -84.2241 -11.5511 -44.1674
v -72.3979 -36.1169 -52.6001
v -94.0997 -11.5511 13.7735
v -84.2241 -11.5511 44.1674
v -113.919 -36.9796 8e-06
v -89.4887 -36.1169 6e-06
v -68.0324 -11.5511 66.4534
v -42.1778 -11.5511 85.2379
v -92.1626 -36.9796 66.96
v -86.383 -11.2347 62.7609
v -72.3979 -36.1169 52.6001
v -35.203 -36.9796 108.344
v -32.9954 -11.2347 101.549
v -15.979 -11.5511 93.7504
v -27.6535 -36.1169 85.1088
v -8e-06 -35.9709 -7e-06
vn 0.480951 0.119486 -0.868567
vn 0.179618 -0.842784 -0.507397
vn 0.427059 -0.842784 -0.327622
vn 0.677434 0.119486 -0.725814
vn -0.121433 0.119486 -0.985382
vn -0.152927 -0.842784 -0.51607
vn 0.152926 -0.842784 -0.51607
vn 0.121433 0.119486 -0.985382
vn -0.677435 0.119486 -0.725814
vn -0.427059 -0.842784 -0.327621
vn -0.480951 0.119486 -0.868567
vn -0.179618 -0.842784 -0.507397
vn -0.974679 0.119486 -0.18901
vn -0.538069 -0.842784 -0.014033
vn -0.899629 0.119486 -0.41999
vn -0.443555 -0.842784 -0.304916
vn -0.899629 0.119486 0.41999
vn -0.443555 -0.842784 0.304916
vn -0.538069 -0.842784 0.014033
vn -0.974679 0.119486 0.18901
vn -0.480951 0.119486 0.868568
vn -0.179618 -0.842784 0.507397
vn -0.427059 -0.842784 0.327622
vn -0.677434 0.119486 0.725814
vn 0.121433 0.119486 0.985382
vn 0.152927 -0.842784 0.51607
vn -0.121433 0.119486 0.985382
vn -0.136416 -0.844644 0.517656
vn 0.677435 0.119486 0.725814
vn 0.414634 -0.844644 0.338609
vn 0.179617 -0.842784 0.507398
vn 0.480951 0.119486 0.868567
vn 0.974679 0.119486 0.18901
vn 0.538069 -0.842784 0.014033
vn 0.899629 0.119486 0.41999
vn 0.443555 -0.842784 0.304916
vn 0.899629 0.119486 -0.41999
vn 0.443555 -0.842784 -0.304916
vn 0.538069 -0.842784 -0.014033
vn 0.974679 0.119486 -0.18901
vn 0.806155 0.084044 -0.585706
vn 0.307924 0.084044 -0.947692
vn 0.38754 0.877801 -0.281564
vn 0.148027 0.877801 -0.455581
vn -0.307924 0.084044 -0.947692
vn -0.148027 0.877801 -0.455581
vn -0.806155 0.084044 -0.585706
vn -0.38754 0.877801 -0.281564
vn -0.996462 0.084044 0
vn -0.479026 0.877801 0
vn -0.806155 0.084044 0.585706
vn -0.38754 0.877801 0.281564
vn -0.307924 0.084044 0.947692
vn -0.148027 0.877801 0.455581
vn 0.307995 0.08126 0.947911
vn 0.148027 0.877801 0.455581
vn 0.806155 0.084044 0.585706
vn 0.38754 0.877801 0.281564
vn 0.996462 0.084044 -0
vn 0.479026 0.877801 -0
vn 0 1 -0
vn 0.650482 -0.277382 0.707059
vn 0.455606 -0.278751 0.845412
vn 0.308986 -0.014334 0.950959
vn -0.110652 -0.277382 0.954367
vn 0.306241 0.133738 0.942513
vn -0.001806 -0.999983 -0.005558
vn 0.865514 -0.278751 0.416154
vn 0.991073 0.133324 0
vn 0.807882 -0.05294 0.586961
vn 0.801794 0.133325 0.582538
vn 0.944824 -0.278751 0.172061
vn -0.004728 -0.999983 -0.003435
vn 0.865514 -0.278751 -0.416154
vn 0.944824 -0.278751 -0.172061
vn 0.998598 -0.052941 0
vn -0.005844 -0.999983 0
vn 0.455606 -0.278751 -0.845412
vn 0.663245 -0.278751 -0.694554
vn 0.807883 -0.05294 -0.586961
vn 0.801795 0.133325 -0.582538
vn -0.004728 -0.999983 0.003435
vn -0.128328 -0.278751 -0.951751
vn 0.128327 -0.278751 -0.951751
vn 0.308584 -0.05294 -0.949723
vn 0.306258 0.133325 -0.942566
vn -0.001806 -0.999983 0.005558
vn -0.663245 -0.278751 -0.694554
vn -0.455606 -0.27875 -0.845412
vn -0.308584 -0.052941 -0.949723
vn -0.306258 0.133325 -0.942566
vn 0.001806 -0.999983 0.005558
vn -0.865514 -0.278751 -0.416154
vn -0.991073 0.133324 0
vn -0.807882 -0.05294 -0.586961
vn -0.801795 0.133325 -0.582538
vn -0.944824 -0.278751 -0.172061
vn 0.004728 -0.999983 0.003435
vn -0.865514 -0.278751 0.416154
vn -0.944824 -0.278751 0.172061
vn -0.998598 -0.05294 0
vn 0.005844 -0.999983 -0
vn -0.455606 -0.278751 0.845412
vn -0.663244 -0.278751 0.694554
vn -0.807883 -0.052941 0.586961
vn -0.801795 0.133325 0.582538
vn 0.004728 -0.999983 -0.003435
vn -0.308584 -0.05294 0.949723
vn -0.306259 0.133325 0.942566
vn 0.128328 -0.278751 0.951751
vn 0.001806 -0.999983 -0.005558
vn 0 -1 0
vt 0.047426 0.265274
vt 0.021084 0.254872
vt 0.056169 0.213903
vt 0.070816 0.235577
vt 0.121291 0.183525
vt 0.098434 0.167803
vt 0.14009 0.134773
vt 0.150114 0.158929
vt 0.209356 0.117334
vt 0.189924 0.097592
vt 0.24225 0.098565
vt 0.236935 0.072957
vt 0.30819 0.068775
vt 0.292798 0.045749
vt 0.344009 0.056484
vt 0.343576 0.030332
vt 0.414352 0.039542
vt 0.403538 0.014043
vt 0.456303 0.00839
vt 0.451837 0.034163
vt 0.524102 0.030666
vt 0.518246 0.003597
vt 0.57112 0.007897
vt 0.561926 0.032378
vt 0.633616 0.042358
vt 0.632725 0.014747
vt 0.670516 0.051078
vt 0.683417 0.028529
vt 0.736222 0.071771
vt 0.740359 0.044646
vt 0.788374 0.066253
vt 0.771405 0.08618
vt 0.835714 0.119415
vt 0.844263 0.093097
vt 0.867563 0.139883
vt 0.887849 0.123337
vt 0.924361 0.184536
vt 0.937933 0.160317
vt 0.975373 0.198868
vt 0.951743 0.210586
vt 0.066793 0.32202
vt 0.129468 0.24227
vt 0.099481 0.342375
vt 0.157516 0.26844
vt 0.206184 0.176562
vt 0.228876 0.207359
vt 0.29398 0.126364
vt 0.310515 0.160839
vt 0.389625 0.093459
vt 0.399427 0.130415
vt 0.489736 0.079017
vt 0.492464 0.117155
vt 0.590799 0.083497
vt 0.586336 0.121528
vt 0.688626 0.106478
vt 0.67796 0.143105
vt 0.781733 0.143901
vt 0.765015 0.178285
vt 0.86678 0.198619
vt 0.844063 0.229318
vt 0.940792 0.268146
vt 0.91305 0.293726
vt 0.91491 0.473299
vt 0.840152 0.527614
vt 0.793949 0.385415
vt 0.747746 0.527614
vt 0.672987 0.473299
vt 0.644432 0.385415
vt 0.672987 0.297532
vt 0.747746 0.243217
vt 0.840152 0.243217
vt 0.91491 0.297532
vt 0.943465 0.385415
vt 0.725394 0.08089
vt 0.772055 0.099493
vt 0.713979 0.029421
vt 0.673559 0.064186
vt 0.69987 0.071823
vt 0.620233 0.246345
vt 0.62447 0.222608
vt 0.654982 0.235012
vt 0.637632 0.26304
vt 0.865741 0.153146
vt 0.889483 0.170195
vt 0.818903 0.074242
vt 0.798688 0.111871
vt 0.823625 0.1266
vt 0.571622 0.179436
vt 0.561096 0.157743
vt 0.593071 0.149843
vt 0.59551 0.182716
vt 0.911042 0.189272
vt 0.947113 0.223063
vt 0.916436 0.136977
vt 0.492966 0.153879
vt 0.471699 0.142515
vt 0.492925 0.11733
vt 0.51422 0.142492
vt 0.05383 0.277734
vt 0.083985 0.238636
vt 1 0.221227
vt 0.966096 0.243673
vt 0 0.280908
vt 0.03738 0.300256
vt 0.41431 0.179436
vt 0.390425 0.182742
vt 0.392794 0.149891
vt 0.424811 0.157731
vt 0.124736 0.19715
vt 0.162315 0.164475
vt 0.072876 0.186791
vt 0.103396 0.216765
vt 0.365698 0.246345
vt 0.348318 0.263059
vt 0.330925 0.235089
vt 0.361435 0.222612
vt 0.210159 0.131371
vt 0.253184 0.106297
vt 0.161396 0.111377
vt 0.185552 0.14664
vt 0.365698 0.329049
vt 0.361461 0.352786
vt 0.330949 0.340381
vt 0.3483 0.312354
vt 0.353303 0.066123
vt 0.381454 0.058062
vt 0.262213 0.053957
vt 0.279334 0.093118
vt 0.306352 0.082716
vt 0.41431 0.395957
vt 0.424835 0.417651
vt 0.39286 0.42555
vt 0.390422 0.392677
vt 0.409939 0.052894
vt 0.459164 0.04537
vt 0.37196 0.016391
vt 0.492966 0.421514
vt 0.514232 0.432878
vt 0.493007 0.458063
vt 0.471712 0.432902
vt 0.517272 0.042959
vt 0.567038 0.044755
vt 0.486793 0
vt 0.488324 0.042714
vt 0.571622 0.395957
vt 0.595506 0.392651
vt 0.593137 0.425503
vt 0.56112 0.417663
vt 0.602598 0.005342
vt 0.596196 0.047581
vt 0.624704 0.053158
vt 0.620234 0.329048
vt 0.637614 0.312335
vt 0.655007 0.340305
vt 0.624496 0.352781
vt 0.492966 0.287697
usemtl initialShadingGroup
f 1/1/1 2/2/2 3/3/3
f 1/1/1 3/3/3 4/4/4
f 5/5/5 6/6/6 7/7/7
f 5/5/5 7/7/7 8/8/8
f 9/9/9 10/10/10 11/11/11
f 10/10/10 12/12/12 11/11/11
f 13/13/13 14/14/14 15/15/15
f 14/14/14 16/16/16 15/15/15
f 17/17/17 18/18/18 19/19/19
f 17/17/17 19/19/19 20/20/20
f 21/21/21 22/22/22 23/23/23
f 21/21/21 23/23/23 24/24/24
f 25/25/25 26/26/26 27/27/27
f 26/26/26 28/28/28 27/27/27
f 29/29/29 30/30/30 31/31/31
f 29/29/29 31/31/31 32/32/32
f 33/33/33 34/34/34 35/35/35
f 34/34/34 36/36/36 35/35/35
f 37/37/37 38/38/38 39/39/39
f 37/37/37 39/39/39 40/40/40
f 41/41/41 42/42/42 43/43/43
f 42/42/42 44/44/44 43/43/43
f 42/42/42 45/45/45 46/46/46
f 42/42/42 46/46/46 44/44/44
f 45/45/45 47/47/47 48/48/48
f 45/45/45 48/48/48 46/46/46
f 47/47/47 49/49/49 48/48/48
f 49/49/49 50/50/50 48/48/48
f 49/49/49 51/51/51 52/52/52
f 49/49/49 52/52/52 50/50/50
f 51/51/51 53/53/53 52/52/52
f 53/53/53 54/54/54 52/52/52
f 53/53/53 55/55/55 56/56/56
f 53/53/53 56/56/56 54/54/54
f 55/55/55 57/57/57 58/58/58
f 55/55/55 58/58/58 56/56/56
f 57/57/57 59/59/59 58/58/58
f 59/59/59 60/60/60 58/58/58
f 59/59/59 41/61/41 43/62/43
f 59/59/59 43/62/43 60/60/60
f 43/63/43 44/64/44 61/65/61
f 44/64/44 46/66/46 61/65/61
f 46/66/46 48/67/48 61/65/61
f 48/67/48 50/68/50 61/65/61
f 50/68/50 52/69/52 61/65/61
f 52/69/52 54/70/54 61/65/61
f 54/70/54 56/71/56 61/65/61
f 56/71/56 58/72/58 61/65/61
f 58/72/58 60/73/60 61/65/61
f 60/73/60 43/63/43 61/65/61
f 55/55/55 62/74/62 63/75/63
f 55/55/55 63/75/63 57/57/57
f 28/28/28 64/76/64 65/77/65
f 64/76/64 66/78/66 65/77/65
f 64/76/64 30/30/30 62/74/62
f 64/76/64 62/74/62 66/78/66
f 67/79/67 30/80/30 64/81/64
f 67/79/67 64/81/64 28/82/28
f 59/59/59 68/83/68 69/84/69
f 31/31/31 70/85/70 63/75/63
f 70/85/70 71/86/71 63/75/63
f 70/85/70 34/34/34 72/87/72
f 70/85/70 72/87/72 71/86/71
f 73/88/73 34/89/34 70/90/70
f 73/88/73 70/90/70 31/91/31
f 59/59/59 74/92/74 41/61/41
f 74/92/74 75/93/75 41/61/41
f 36/36/36 76/94/76 68/83/68
f 76/94/76 69/84/69 68/83/68
f 76/94/76 38/38/38 74/92/74
f 76/94/76 74/92/74 69/84/69
f 77/95/77 38/96/38 76/97/76
f 77/95/77 76/97/76 36/98/36
f 41/41/41 78/99/78 42/42/42
f 78/99/78 79/100/79 42/42/42
f 39/39/39 80/101/80 75/93/75
f 80/101/80 81/102/81 75/93/75
f 80/103/80 2/2/2 78/99/78
f 80/103/80 78/99/78 81/104/81
f 82/105/82 2/106/2 80/107/80
f 82/105/82 80/107/80 39/108/39
f 42/42/42 83/109/83 84/110/84
f 42/42/42 84/110/84 45/45/45
f 3/3/3 85/111/85 79/100/79
f 85/111/85 86/112/86 79/100/79
f 85/111/85 6/6/6 83/109/83
f 85/111/85 83/109/83 86/112/86
f 87/113/87 6/114/6 85/115/85
f 87/113/87 85/115/85 3/116/3
f 45/45/45 88/117/88 89/118/89
f 45/45/45 89/118/89 47/47/47
f 7/7/7 90/119/90 84/110/84
f 90/119/90 91/120/91 84/110/84
f 90/119/90 10/10/10 88/117/88
f 90/119/90 88/117/88 91/120/91
f 92/121/92 10/122/10 90/123/90
f 92/121/92 90/123/90 7/124/7
f 49/49/49 93/125/93 94/126/94
f 12/12/12 95/127/95 89/118/89
f 95/127/95 96/128/96 89/118/89
f 95/127/95 14/14/14 97/129/97
f 95/127/95 97/129/97 96/128/96
f 98/130/98 14/131/14 95/132/95
f 98/130/98 95/132/95 12/133/12
f 49/49/49 99/134/99 100/135/100
f 49/49/49 100/135/100 51/51/51
f 16/16/16 101/136/101 93/125/93
f 101/136/101 94/126/94 93/125/93
f 101/136/101 18/18/18 99/134/99
f 101/136/101 99/134/99 94/126/94
f 102/137/102 18/138/18 101/139/101
f 102/137/102 101/139/101 16/140/16
f 51/51/51 103/141/103 53/53/53
f 103/141/103 104/142/104 53/53/53
f 19/19/19 105/143/105 100/135/100
f 105/143/105 106/144/106 100/135/100
f 105/143/105 22/22/22 103/141/103
f 105/143/105 103/141/103 106/144/106
f 107/145/107 22/146/22 105/147/105
f 107/145/107 105/147/105 19/148/19
f 55/55/55 65/77/65 66/78/66
f 23/23/23 108/149/108 104/142/104
f 108/149/108 109/150/109 104/142/104
f 108/149/108 26/26/26 110/151/110
f 108/149/108 110/151/110 109/150/109
f 111/152/111 26/153/26 108/154/108
f 111/152/111 108/154/108 23/155/23
f 78/99/78 2/2/2 1/1/1
f 3/3/3 79/100/79 4/4/4
f 79/100/79 78/99/78 4/4/4
f 78/99/78 1/1/1 4/4/4
f 83/109/83 6/6/6 5/5/5
f 7/7/7 84/110/84 8/8/8
f 84/110/84 83/109/83 5/5/5
f 84/110/84 5/5/5 8/8/8
f 88/117/88 10/10/10 9/9/9
f 12/12/12 89/118/89 11/11/11
f 89/118/89 88/117/88 11/11/11
f 88/117/88 9/9/9 11/11/11
f 97/129/97 14/14/14 13/13/13
f 16/16/16 93/125/93 15/15/15
f 93/125/93 97/129/97 15/15/15
f 97/129/97 13/13/13 15/15/15
f 99/134/99 18/18/18 17/17/17
f 19/19/19 100/135/100 20/20/20
f 100/135/100 99/134/99 17/17/17
f 100/135/100 17/17/17 20/20/20
f 103/141/103 22/22/22 21/21/21
f 23/23/23 104/142/104 24/24/24
f 104/142/104 103/141/103 24/24/24
f 103/141/103 21/21/21 24/24/24
f 110/151/110 26/26/26 25/25/25
f 28/28/28 65/77/65 27/27/27
f 65/77/65 110/151/110 25/25/25
f 65/77/65 25/25/25 27/27/27
f 62/74/62 30/30/30 29/29/29
f 31/31/31 63/75/63 32/32/32
f 63/75/63 62/74/62 29/29/29
f 63/75/63 29/29/29 32/32/32
f 72/87/72 34/34/34 33/33/33
f 36/36/36 68/83/68 35/35/35
f 68/83/68 72/87/72 33/33/33
f 68/83/68 33/33/33 35/35/35
f 74/92/74 38/38/38 37/37/37
f 39/39/39 75/93/75 40/40/40
f 75/93/75 74/92/74 37/37/37
f 75/93/75 37/37/37 40/40/40
f 31/91/31 30/80/30 112/156/112
f 67/79/67 28/82/28 112/156/112
f 30/80/30 67/79/67 112/156/112
f 36/98/36 34/89/34 112/156/112
f 73/88/73 31/91/31 112/156/112
f 34/89/34 73/88/73 112/156/112
f 39/108/39 38/96/38 112/156/112
f 77/95/77 36/98/36 112/156/112
f 38/96/38 77/95/77 112/156/112
f 3/116/3 2/106/2 112/156/112
f 82/105/82 39/108/39 112/156/112
f 2/106/2 82/105/82 112/156/112
f 7/124/7 6/114/6 112/156/112
f 87/113/87 3/116/3 112/156/112
f 6/114/6 87/113/87 112/156/112
f 12/133/12 10/122/10 112/156/112
f 92/121/92 7/124/7 112/156/112
f 10/122/10 92/121/92 112/156/112
f 16/140/16 14/131/14 112/156/112
f 98/130/98 12/133/12 112/156/112
f 14/131/14 98/130/98 112/156/112
f 19/148/19 18/138/18 112/156/112
f 102/137/102 16/140/16 112/156/112
f 18/138/18 102/137/102 112/156/112
f 23/155/23 22/146/22 112/156/112
f 107/145/107 19/148/19 112/156/112
f 22/146/22 107/145/107 112/156/112
f 28/82/28 26/153/26 112/156/112
f 111/152/111 23/155/23 112/156/112
f 26/153/26 111/152/111 112/156/112
f 66/78/66 62/74/62 55/55/55
f 57/57/57 63/75/63 71/86/71
f 71/86/71 72/87/72 57/57/57
f 57/57/57 72/87/72 68/83/68
f 57/57/57 68/83/68 59/59/59
f 69/84/69 74/92/74 59/59/59
f 41/61/41 75/93/75 81/102/81
f 81/104/81 78/99/78 41/41/41
f 42/42/42 79/100/79 86/112/86
f 86/112/86 83/109/83 42/42/42
f 45/45/45 84/110/84 91/120/91
f 91/120/91 88/117/88 45/45/45
f 47/47/47 89/118/89 96/128/96
f 96/128/96 97/129/97 47/47/47
f 47/47/47 97/129/97 49/49/49
f 97/129/97 93/125/93 49/49/49
f 94/126/94 99/134/99 49/49/49
f 51/51/51 100/135/100 106/144/106
f 106/144/106 103/141/103 51/51/51
f 53/53/53 104/142/104 109/150/109
f 109/150/109 110/151/110 53/53/53
f 53/53/53 110/151/110 55/55/55
f 110/151/110 65/77/65 55/55/55
s off
