# This file uses centimeters as units for non-parametric coordinates.

mtllib plastic spoon.mtl
g default
v 0.428108 0.017319 0.436462
v 0.441049 0.032336 0.365902
v 0.431563 0.037413 0.094636
v 0.402910 0.003312 0.485625
v 0.402953 0.032381 0.365902
v 0.402991 0.037422 0.094636
v 0.374338 0.003356 0.485626
v 0.374382 0.032414 0.365901
v 0.374420 0.037430 0.094635
v 0.345788 0.017434 0.436465
v 0.336287 0.032458 0.365901
v 0.345848 0.037439 0.094634
v 0.402990 0.054269 0.501749
v 0.428181 0.069108 0.449676
v 0.441110 0.085015 0.374933
v 0.403015 0.085061 0.374926
v 0.403007 0.090399 0.087560
v 0.431579 0.090391 0.087566
v 0.374418 0.054315 0.501747
v 0.374443 0.085095 0.374921
v 0.374436 0.090407 0.087555
v 0.345860 0.069226 0.449665
v 0.336348 0.085141 0.374914
v 0.345864 0.090415 0.087549
v 0.431567 0.055827 -0.069392
v 0.402995 0.055827 -0.069392
v 0.374424 0.055828 -0.069392
v 0.345852 0.055828 -0.069392
v 0.402995 0.002505 -0.073053
v 0.431566 0.002505 -0.073053
v 0.374423 0.002505 -0.073054
v 0.345852 0.002506 -0.073054
v 0.301234 0.008048 -0.130739
v 0.476223 0.008044 -0.130739
v 0.288708 0.028757 -0.245907
v 0.500418 0.028748 -0.245907
v 0.289225 0.081976 -0.399580
v 0.486128 0.087135 -0.410054
v 0.460137 0.004925 -0.102383
v 0.460137 0.028750 -0.245907
v 0.431566 0.004926 -0.102383
v 0.431566 0.028751 -0.245907
v 0.432072 0.120680 -0.505589
v 0.402994 0.004926 -0.102383
v 0.402994 0.028752 -0.245907
v 0.374423 0.004927 -0.102383
v 0.374423 0.028753 -0.245907
v 0.374925 0.120685 -0.513967
v 0.345852 0.004927 -0.102383
v 0.345851 0.028754 -0.245907
v 0.317280 0.004928 -0.102383
v 0.317280 0.028756 -0.245907
v 0.277501 0.060414 -0.340149
v 0.317782 0.060412 -0.340149
v 0.346354 0.060410 -0.340150
v 0.374925 0.060409 -0.340150
v 0.403497 0.060407 -0.340150
v 0.432068 0.060405 -0.340150
v 0.460640 0.060403 -0.340151
v 0.500983 0.060401 -0.340151
v 0.288708 0.016574 -0.187236
v 0.317280 0.008600 -0.135133
v 0.460137 0.008597 -0.135133
v 0.488708 0.016568 -0.187236
v 0.288710 0.069191 -0.177847
v 0.317281 0.055717 -0.128359
v 0.317282 0.065177 -0.233575
v 0.276942 0.080762 -0.233574
v 0.277505 0.109956 -0.320093
v 0.317786 0.094370 -0.320093
v 0.289225 0.133553 -0.381693
v 0.460138 0.055714 -0.128359
v 0.460139 0.067415 -0.233576
v 0.488710 0.069185 -0.177849
v 0.500420 0.080754 -0.233576
v 0.460643 0.096604 -0.320096
v 0.486132 0.134524 -0.385338
v 0.500983 0.109943 -0.320096
v 0.431567 0.050703 -0.097251
v 0.460138 0.058126 -0.097251
v 0.431568 0.060436 -0.233576
v 0.402996 0.060437 -0.233575
v 0.402995 0.050704 -0.097251
v 0.403500 0.089628 -0.320095
v 0.403500 0.168070 -0.488193
v 0.432072 0.089626 -0.320095
v 0.374425 0.060438 -0.233575
v 0.374424 0.050704 -0.097251
v 0.345854 0.060439 -0.233575
v 0.345852 0.050705 -0.097251
v 0.346357 0.089632 -0.320094
v 0.346357 0.168074 -0.484198
v 0.374929 0.089630 -0.320094
v 0.301235 0.061092 -0.124185
v 0.317281 0.058129 -0.097251
v 0.476224 0.061088 -0.124186
v 0.317786 0.155850 -0.443386
v 0.374929 0.168072 -0.489252
v 0.432072 0.168068 -0.480874
v 0.454407 0.154435 -0.444142
v 0.454403 0.107046 -0.468858
v 0.403497 0.120683 -0.512909
v 0.346354 0.120687 -0.508914
v 0.317782 0.108462 -0.468102
vt 0.616852 0.999998
vt 0.616896 0.880227
vt 0.655006 0.880227
vt 0.642061 0.950815
vt 0.588269 1.000000
vt 0.588313 0.880227
vt 0.616933 0.608851
vt 0.645516 0.608851
vt 0.559707 0.950818
vt 0.550202 0.880226
vt 0.588350 0.608850
vt 0.645520 0.441093
vt 0.616937 0.441093
vt 0.559767 0.608849
vt 0.588354 0.441093
vt 0.616937 0.411752
vt 0.645520 0.411752
vt 0.559771 0.441093
vt 0.588354 0.411752
vt 0.616936 0.268169
vt 0.645519 0.268169
vt 0.674103 0.411752
vt 0.559771 0.411752
vt 0.588353 0.268169
vt 0.646022 0.173888
vt 0.617439 0.173888
vt 0.674103 0.378989
vt 0.674102 0.268169
vt 0.559770 0.268169
vt 0.531188 0.411752
vt 0.588856 0.173888
vt 0.674605 0.173887
vt 0.646026 0.008382
vt 0.617439 0.001059
vt 0.714399 0.268169
vt 0.702686 0.326864
vt 0.690195 0.383384
vt 0.531187 0.378988
vt 0.531187 0.268169
vt 0.560273 0.173888
vt 0.588856 0.000000
vt 0.668366 0.045128
vt 0.714965 0.173887
vt 0.502604 0.326864
vt 0.502604 0.268169
vt 0.531690 0.173889
vt 0.560273 0.005055
vt 0.515134 0.383384
vt 0.700104 0.103956
vt 0.491392 0.173889
vt 0.531690 0.045884
vt 0.503121 0.114434
vt 0.401022 0.000000
vt 0.426441 0.052547
vt 0.439488 0.127968
vt 0.401047 0.127975
vt 0.401039 0.417950
vt 0.429870 0.417945
vt 0.372191 0.000002
vt 0.372216 0.127980
vt 0.372208 0.417956
vt 0.429858 0.576328
vt 0.401027 0.576328
vt 0.343373 0.052557
vt 0.333775 0.127987
vt 0.343377 0.417961
vt 0.372196 0.576328
vt 0.401027 0.604440
vt 0.429858 0.604440
vt 0.343365 0.576328
vt 0.372196 0.604440
vt 0.458689 0.604440
vt 0.429859 0.742002
vt 0.401028 0.742002
vt 0.343365 0.604439
vt 0.372197 0.742002
vt 0.458689 0.635831
vt 0.458690 0.742003
vt 0.430368 0.829307
vt 0.401537 0.829307
vt 0.314535 0.604439
vt 0.343367 0.742001
vt 0.372706 0.829306
vt 0.487520 0.685769
vt 0.474921 0.631619
vt 0.499337 0.742003
vt 0.459199 0.829308
vt 0.401537 0.998932
vt 0.430368 0.991546
vt 0.314535 0.635830
vt 0.343875 0.829306
vt 0.314536 0.742001
vt 0.372706 1.000000
vt 0.499905 0.829309
vt 0.452905 0.954481
vt 0.298343 0.631618
vt 0.285704 0.685768
vt 0.343875 0.994901
vt 0.315044 0.829305
vt 0.273829 0.742001
vt 0.484919 0.895143
vt 0.315044 0.953717
vt 0.274397 0.829305
vt 0.286223 0.891465
vt 0.185081 0.473045
vt 0.185081 0.445947
vt 0.209980 0.445947
vt 0.209980 0.473045
vt 0.185081 0.411052
vt 0.209980 0.411052
vt 0.185081 0.286058
vt 0.209980 0.286058
vt 0.185081 0.218508
vt 0.209980 0.218508
vt 0.185081 0.200129
vt 0.209980 0.200129
vt 0.185081 0.185482
vt 0.209980 0.185482
vt 0.185081 0.159286
vt 0.209980 0.159286
vt 0.185081 0.131756
vt 0.209980 0.131756
vt 0.185081 0.087475
vt 0.209980 0.087475
vt 0.185081 0.053261
vt 0.209980 0.053261
vt 0.185081 0.020902
vt 0.209980 0.020902
vt 0.185081 0.000001
vt 0.209980 0.000001
vt 0.185081 0.514119
vt 0.185081 0.486313
vt 0.209980 0.486313
vt 0.209980 0.514119
vt 0.185081 0.548736
vt 0.209980 0.548736
vt 0.185081 0.673208
vt 0.209980 0.673208
vt 0.185081 0.740217
vt 0.209980 0.740217
vt 0.185081 0.758536
vt 0.209980 0.758536
vt 0.185081 0.773132
vt 0.209980 0.773132
vt 0.185081 0.799271
vt 0.209980 0.799271
vt 0.185081 0.826534
vt 0.209980 0.826534
vt 0.185081 0.870968
vt 0.209980 0.870968
vt 0.185081 0.901445
vt 0.209980 0.901445
vt 0.209980 0.936349
vt 0.185081 0.936349
vt 0.209980 0.960168
vt 0.185081 0.960168
vt 0.185081 0.973620
vt 0.209980 0.973620
vt 0.209980 0.986739
vt 0.185081 0.986739
vt 0.209980 1.000000
vt 0.185081 1.000000
vn 0.461054 0.613415 0.641211
vn 0.732580 0.573776 0.366207
vn 0.819134 0.571615 0.047703
vn -0.004852 0.996975 0.077574
vn 0.000567 0.998116 -0.061360
vn 0.833135 0.550927 -0.048644
vn 0.909423 0.414948 0.027735
vn 0.000141 0.977702 -0.209997
vn -0.443403 0.612889 0.654035
vn 0.006646 0.996860 0.078902
vn 0.000567 0.998110 -0.061445
vn 0.000141 0.977692 -0.210042
vn -0.720723 0.588559 0.366275
vn -0.811054 0.583453 0.042125
vn -0.832575 0.551758 -0.048798
vn -0.909335 0.415142 0.027697
vn 0.472485 -0.833587 0.286165
vn 0.004532 -0.996976 -0.077582
vn 0.869844 -0.492653 -0.025765
vn 0.777980 -0.621904 0.089340
vn -0.000547 -0.997970 0.063683
vn 0.874070 -0.485707 0.009494
vn 0.803852 -0.551023 0.224044
vn -0.000138 -0.986670 0.162737
vn -0.459026 -0.836805 0.298417
vn -0.006323 -0.996861 -0.078913
vn -0.000546 -0.997965 0.063768
vn -0.000138 -0.986663 0.162777
vn -0.769496 -0.633248 0.082906
vn -0.866245 -0.498318 -0.036031
vn -0.874565 -0.484815 0.009520
vn -0.803949 -0.550860 0.224095
vn -0.701612 0.677749 0.219993
vn 0.185565 0.980331 0.067205
vn 0.242616 0.949074 0.200986
vn -0.769108 0.598244 0.224893
vn 0.250063 0.893726 0.372454
vn -0.444094 0.891568 0.088812
vn -0.639126 0.764926 0.080035
vn -0.728490 0.646297 0.227162
vn -0.243702 0.947696 0.206112
vn -0.202749 0.976336 0.075236
vn 0.687058 0.673537 0.272579
vn 0.733411 0.636364 0.239059
vn -0.060924 0.997780 0.026890
vn 0.755124 0.181852 0.629856
vn -0.091148 0.979880 0.177557
vn 0.000040 0.985085 0.172066
vn 0.000027 0.999606 0.028066
vn 0.000040 0.985084 0.172072
vn 0.000027 0.999606 0.028071
vn 0.067484 0.982008 0.176371
vn 0.052998 0.998288 0.024741
vn 0.009999 0.920779 0.389957
vn 0.098200 0.915338 0.390529
vn -0.115074 0.914443 0.388011
vn -0.020844 0.920019 0.391319
vn 0.727583 0.661648 0.181229
vn -0.244697 0.897427 0.367081
vn -0.907795 0.239059 0.344616
vn -0.755447 0.181718 0.629506
vn 0.907689 0.239456 0.344619
vn -0.779861 -0.625840 0.011877
vn -0.740536 -0.660080 -0.126097
vn 0.016926 -0.968326 -0.249117
vn 0.027435 -0.985937 -0.164847
vn -0.015823 -0.967875 -0.250933
vn 0.768903 -0.629716 -0.110659
vn 0.737495 -0.674491 0.034104
vn -0.027107 -0.985863 -0.165348
vn 0.742295 -0.487570 -0.459645
vn 0.784188 -0.559250 -0.268865
vn 0.005048 -0.943159 -0.332302
vn 0.556601 -0.625498 -0.546762
vn 0.764411 -0.291282 0.575179
vn -0.007881 -0.988723 -0.149552
vn -0.000027 -0.988667 -0.150123
vn -0.000040 -0.973840 -0.227234
vn -0.009435 -0.972859 -0.231205
vn -0.000027 -0.988667 -0.150128
vn -0.000040 -0.973839 -0.227240
vn 0.007826 -0.988721 -0.149564
vn 0.009353 -0.972856 -0.231223
vn -0.788858 -0.567330 -0.236302
vn -0.010766 -0.942859 -0.333019
vn -0.007537 -0.945320 -0.326058
vn -0.022845 -0.943667 -0.330106
vn 0.013506 -0.943679 -0.330586
vn 0.015661 -0.944816 -0.327226
vn -0.908888 -0.317031 0.270949
vn -0.764710 -0.291055 0.574896
vn 0.908760 -0.317470 0.270866
vn -0.744777 -0.510887 -0.429303
vn 0.629193 0.775040 0.058555
vn -0.248218 0.967169 0.054528
vn -0.005942 0.990929 0.134256
vn 0.012829 0.990793 0.134779
vn 0.241682 0.965873 0.093159
vn 0.427345 0.900800 0.077045
vn 0.328453 -0.707760 -0.625455
vn 0.060585 -0.798575 -0.598839
vn -0.028915 -0.801630 -0.597122
vn -0.312781 -0.702101 -0.639705
vn -0.598905 -0.596945 -0.533825
s 1
g polySurface3
usemtl initialShadingGroup
f 13/53/1 14/54/2 15/55/3 16/56/4
f 17/57/5 16/56/4 15/55/3 18/58/6
f 25/62/7 26/63/8 17/57/5 18/58/6
f 19/59/9 13/53/1 16/56/4 20/60/10
f 21/61/11 20/60/10 16/56/4 17/57/5
f 26/63/8 27/67/12 21/61/11 17/57/5
f 22/64/13 19/59/9 20/60/10 23/65/14
f 24/66/15 23/65/14 20/60/10 21/61/11
f 27/67/12 28/70/16 24/66/15 21/61/11
f 4/1/17 5/2/18 2/3/19 1/4/20
f 6/7/21 3/8/22 2/3/19 5/2/18
f 30/12/23 3/8/22 6/7/21 29/13/24
f 7/5/25 8/6/26 5/2/18 4/1/17
f 9/11/27 6/7/21 5/2/18 8/6/26
f 29/13/24 6/7/21 9/11/27 31/15/28
f 10/9/29 11/10/30 8/6/26 7/5/25
f 12/14/31 9/11/27 8/6/26 11/10/30
f 31/15/28 9/11/27 12/14/31 32/18/32
f 4/105/17 1/106/20 14/107/2 13/108/1
f 1/106/20 2/109/19 15/110/3 14/107/2
f 2/109/19 3/111/22 18/112/6 15/110/3
f 3/111/22 30/113/23 25/114/7 18/112/6
f 7/132/25 4/105/17 13/108/1 19/133/9
f 10/131/29 7/132/25 19/133/9 22/134/13
f 11/135/30 10/131/29 22/134/13 23/136/14
f 12/137/31 11/135/30 23/136/14 24/138/15
f 32/139/32 12/137/31 24/138/15 28/140/16
f 65/97/33 66/90/34 67/92/35 68/100/36
f 70/99/37 97/102/38 71/104/39 69/103/40
f 73/78/41 72/77/42 74/84/43 75/86/44
f 72/77/42 79/69/45 80/72/46
f 79/69/45 81/73/47 82/74/48 83/68/49
f 83/68/49 82/74/48 87/76/50 88/71/51
f 88/71/51 87/76/50 89/82/52 90/75/53
f 90/75/53 89/82/52 67/92/35 66/90/34
f 68/100/36 67/92/35 70/99/37 69/103/40
f 93/83/54 91/91/55 89/82/52 87/76/50
f 86/79/56 84/80/57 82/74/48 81/73/47
f 78/94/58 76/87/59 73/78/41 75/86/44
f 94/96/60 95/81/61 66/90/34 65/97/33
f 74/84/43 72/77/42 80/72/46 96/85/62
f 72/77/42 73/78/41 81/73/47 79/69/45
f 90/75/53 66/90/34 95/81/61
f 79/69/45 25/62/7 80/72/46
f 83/68/49 26/63/8 25/62/7 79/69/45
f 88/71/51 27/67/12 26/63/8 83/68/49
f 90/75/53 28/70/16 27/67/12 88/71/51
f 95/81/61 28/70/16 90/75/53
f 61/44/63 35/45/64 52/39/65 62/38/66
f 40/28/67 36/35/68 64/36/69 63/27/70
f 38/49/71 60/43/72 59/32/73 101/42/74
f 63/27/70 39/22/75 41/17/76
f 41/17/76 44/16/77 45/20/78 42/21/79
f 44/16/77 46/19/80 47/24/81 45/20/78
f 46/19/80 49/23/82 50/29/83 47/24/81
f 49/23/82 62/38/66 52/39/65 50/29/83
f 35/45/64 53/50/84 54/46/85 52/39/65
f 56/31/86 47/24/81 50/29/83 55/40/87
f 58/25/88 42/21/79 45/20/78 57/26/89
f 60/43/72 36/35/68 40/28/67 59/32/73
f 33/48/90 61/44/63 62/38/66 51/30/91
f 64/36/69 34/37/92 39/22/75 63/27/70
f 63/27/70 41/17/76 42/21/79 40/28/67
f 49/23/82 51/30/91 62/38/66
f 41/17/76 39/22/75 30/12/23
f 44/16/77 41/17/76 30/12/23 29/13/24
f 46/19/80 44/16/77 29/13/24 31/15/28
f 49/23/82 46/19/80 31/15/28 32/18/32
f 51/30/91 49/23/82 32/18/32
f 35/147/64 61/145/63 65/146/33 68/148/36
f 37/151/93 53/149/84 69/150/40 71/152/39
f 64/119/69 36/121/68 75/122/44 74/120/43
f 60/123/72 38/125/71 77/126/94 78/124/58
f 53/149/84 35/147/64 68/148/36 69/150/40
f 36/121/68 60/123/72 78/124/58 75/122/44
f 33/143/90 51/141/91 95/142/61 94/144/60
f 61/145/63 33/143/90 94/144/60 65/146/33
f 39/115/75 34/117/92 96/118/62 80/116/46
f 34/117/92 64/119/69 74/120/43 96/118/62
f 30/113/23 39/115/75 80/116/46 25/114/7
f 51/141/91 32/139/32 28/140/16 95/142/61
f 70/99/37 67/92/35 89/82/52 91/91/55
f 93/83/54 87/76/50 82/74/48 84/80/57
f 86/79/56 81/73/47 73/78/41 76/87/59
f 92/98/95 97/102/38 70/99/37 91/91/55
f 92/98/95 91/91/55 93/83/54 98/93/96
f 98/93/96 93/83/54 84/80/57 85/88/97
f 85/88/97 84/80/57 86/79/56 99/89/98
f 100/95/99 76/87/59 78/94/58 77/101/94
f 99/89/98 86/79/56 76/87/59 100/95/99
f 42/21/79 58/25/88 59/32/73 40/28/67
f 47/24/81 56/31/86 57/26/89 45/20/78
f 52/39/65 54/46/85 55/40/87 50/29/83
f 101/42/74 59/32/73 58/25/88 43/33/100
f 43/33/100 58/25/88 57/26/89 102/34/101
f 102/34/101 57/26/89 56/31/86 48/41/102
f 48/41/102 56/31/86 55/40/87 103/47/103
f 103/47/103 55/40/87 54/46/85 104/51/104
f 104/51/104 54/46/85 53/50/84 37/52/93
f 43/129/100 99/130/98 100/128/99 101/127/74
f 101/127/74 100/128/99 77/126/94 38/125/71
f 48/157/102 98/158/96 85/159/97 102/160/101
f 102/160/101 85/159/97 99/161/98 43/162/100
f 103/156/103 92/155/95 98/158/96 48/157/102
f 104/154/104 97/153/38 92/155/95 103/156/103
f 71/152/39 97/153/38 104/154/104 37/151/93
