# Apple ModelIO OBJ File: TinCan2
mtllib TinCan2.mtl
g pDisc2_blinn1SG
v -92.309 107.501 2.93512
v -89.5758 106.854 5.25739
v -87.6079 106.854 0.00958
v -92.7546 107.501 -1.71806
v -89.5758 106.854 -5.23824
v -92.6852 107.501 -7.95646
v -95.3391 111.855 -9.19844
v -95.3391 111.939 -4.31442
v -95.3391 112.603 0.338761
v -95.5703 117.2 -7.95646
v -95.5704 116.307 -2.52779
v -95.7396 121.112 -4.56333
v -95.8016 122.544 0.07177
v -95.7396 121.112 4.70687
v -95.5704 116.971 2.12539
v -95.3391 111.855 4.99194
v -95.5703 117.2 8.1
v -95.3391 111.855 9.34197
v -92.6852 107.501 8.1
v -94.7277 78.9187 -9.79956
v -89.5758 78.9187 -6.05646
v -97.9118 79.3511 -3e-06
v -101.096 78.9187 -9.79956
v -106.248 78.9187 -6.05646
v -108.216 78.9187 -2e-06
v -106.248 78.9187 6.05646
v -101.096 78.9187 9.79955
v -94.7277 78.9187 9.79955
v -89.5758 78.9187 6.05646
v -87.6079 78.9187 -3e-06
v -88.2832 106.539 -6.99555
v -88.5315 105.219 -6.8152
v -94.234 106.539 -11.319
v -94.3288 105.219 -11.0272
v -86.0102 106.539 -2e-06
v -86.3171 105.219 -2e-06
v -88.5315 105.219 6.8152
v -88.2832 106.539 6.99555
v -94.234 106.539 11.319
v -94.3288 105.219 11.0272
v -101.59 106.539 11.319
v -101.495 105.219 11.0272
v -107.292 105.219 6.8152
v -107.54 106.539 6.99555
v -109.813 106.539 -2e-06
v -109.506 105.219 -2e-06
v -107.292 105.219 -6.8152
v -107.54 106.539 -6.99555
v -101.59 106.539 -11.319
v -101.495 105.219 -11.0272
v -86.0697 107.845 -2e-06
v -88.3314 107.845 -6.96058
v -88.3314 107.845 6.96058
v -94.2524 107.845 11.2624
v -101.571 107.845 11.2624
v -107.492 107.845 6.96058
v -109.754 107.845 -2e-06
v -107.492 107.845 -6.96058
v -101.571 107.845 -11.2624
v -94.2524 107.845 -11.2625
v -88.2837 79.8384 -6.99519
v -88.5321 81.1371 -6.81476
v -86.3178 81.1371 -2e-06
v -86.0109 79.8384 -2e-06
v -94.3291 81.1371 -11.0265
v -94.2342 79.8384 -11.3185
v -88.2837 79.8384 6.99519
v -88.5321 81.1371 6.81476
v -94.2342 79.8384 11.3185
v -94.3291 81.1371 11.0265
v -101.589 79.8384 11.3185
v -101.495 81.1371 11.0265
v -107.291 81.1371 6.81476
v -107.54 79.8384 6.99519
v -109.506 81.1371 -2e-06
v -109.813 79.8384 -2e-06
v -107.54 79.8384 -6.99519
v -107.291 81.1371 -6.81476
v -101.589 79.8384 -11.3185
v -101.495 81.1371 -11.0265
v -88.3314 78.5509 -6.96058
v -94.2524 78.5509 -11.2625
v -101.571 78.5509 -11.2624
v -107.492 78.5509 -6.96058
v -109.754 78.5509 -2e-06
v -107.492 78.5509 6.96058
v -101.571 78.5509 11.2624
v -94.2524 78.5509 11.2624
v -88.3314 78.5509 6.96058
v -86.0697 78.5509 -3e-06
v -89.5758 107.845 -6.05646
v -87.6079 107.845 -3e-06
v -89.5758 107.845 6.05646
v -94.7277 107.845 9.79955
v -101.096 107.845 9.79955
v -106.248 107.845 6.05646
v -108.216 107.845 -2e-06
v -106.248 107.845 -6.05646
v -101.096 107.845 -9.79956
v -94.7277 107.845 -9.79956
v -89.5758 78.5509 -6.05646
v -94.7277 78.5509 -9.79956
v -101.096 78.5509 -9.79956
v -106.248 78.5509 -6.05646
v -108.216 78.5509 -2e-06
v -106.248 78.5509 6.05646
v -101.096 78.5509 9.79955
v -94.7277 78.5509 9.79955
v -89.5758 78.5509 6.05646
v -87.6079 78.5509 -3e-06
v -97.9118 81.2412 -3e-06
v -89.0303 105.891 -6.45279
v -86.9337 105.891 -3e-06
v -94.7277 106.854 -9.79956
v -94.5194 105.891 -10.4408
v -101.304 105.891 -10.4408
v -101.096 106.854 -9.79956
v -106.248 106.854 -6.05646
v -106.793 105.891 -6.45279
v -108.216 106.854 -2e-06
v -108.89 105.891 -2e-06
v -106.793 105.891 6.45279
v -106.248 106.854 6.05646
v -101.304 105.891 10.4408
v -101.096 106.854 9.79955
v -94.5194 105.891 10.4408
v -94.7277 106.854 9.79955
v -89.0303 105.891 6.45279
v -96.0135 116.448 -2.24578
v -96.0144 116.463 2.38932
v -96.2766 122.523 0.07177
v -96.2147 121.091 -4.56333
v -96.2147 121.091 4.70687
v -96.0454 117.179 8.1
v -95.7964 111.725 4.71171
v -95.782 111.725 9.34918
v -95.7985 111.733 0.071769
v -93.5684 107.517 2.38647
v -92.9439 107.15 8.09225
v -89.6824 106.392 5.22747
v -87.7076 106.39 0.003847
v -93.5775 107.524 -2.24078
v -89.7782 106.442 -5.23286
v -95.7885 111.7 -4.56473
v -93.0691 107.253 -7.96032
v -95.7948 111.72 -9.19844
v -96.0357 117.122 -7.95646
vn 0.607313 0.794347 0.013608
vn 0.427341 0.903323 0.03724
vn 0.157526 0.987507 0.003966
vn 0.625261 0.779667 -0.03417
vn 0.16939 0.985151 -0.027998
vn 0.754852 0.64737 -0.105405
vn 0.945895 0.300771 -0.121739
vn 0.950694 0.309771 -0.014943
vn 0.951743 0.306743 -0.009674
vn 0.990872 0.094588 -0.096046
vn 0.998982 0.045113 -0.000668
vn 0.98983 0.129843 -0.058115
vn 0.989103 0.147224 -0.00077
vn 0.990088 0.128888 0.055804
vn 0.996595 0.082351 0.00421
vn 0.946864 0.320655 0.025081
vn 0.983833 0.150335 0.09732
vn 0.946279 0.283486 0.155535
vn 0.814216 0.554705 0.171331
vn -0.012958 -0.999121 0.039879
vn -0.033923 -0.999121 0.024647
vn -0 -1 0
vn 0.012958 -0.999121 0.039879
vn 0.033923 -0.999121 0.024647
vn 0.041931 -0.999121 0
vn 0.033923 -0.999121 -0.024647
vn 0.012958 -0.999121 -0.039879
vn -0.012958 -0.999121 -0.039879
vn -0.033923 -0.999121 -0.024647
vn -0.041931 -0.999121 0
vn 0.805694 -0.090546 -0.58537
vn 0.808951 -0.012775 -0.587737
vn 0.307747 -0.090546 -0.94715
vn 0.308991 -0.012775 -0.950979
vn 0.995892 -0.090547 -0
vn 0.999918 -0.012775 0
vn 0.808951 -0.012775 0.587737
vn 0.805694 -0.090546 0.585371
vn 0.307747 -0.090544 0.94715
vn 0.308991 -0.012775 0.950979
vn -0.307747 -0.090544 0.94715
vn -0.308991 -0.012775 0.950979
vn -0.808951 -0.012775 0.587738
vn -0.805694 -0.090545 0.585371
vn -0.995892 -0.090545 0
vn -0.999918 -0.012775 0
vn -0.808951 -0.012775 -0.587738
vn -0.805694 -0.090545 -0.585371
vn -0.307748 -0.090546 -0.94715
vn -0.308992 -0.012775 -0.950979
vn 0.737178 0.675699 -0
vn 0.596389 0.675699 -0.433302
vn 0.59639 0.6757 0.433301
vn 0.2278 0.675699 0.701098
vn -0.227801 0.675698 0.701099
vn -0.59639 0.675698 0.433303
vn -0.737178 0.675699 -0
vn -0.596389 0.6757 -0.433301
vn -0.227801 0.675699 -0.701098
vn 0.2278 0.675698 -0.701099
vn 0.805574 0.092159 -0.585283
vn 0.808951 0.01274 -0.587738
vn 0.999919 0.012741 0
vn 0.995744 0.09216 0
vn 0.308992 0.012741 -0.950979
vn 0.307702 0.092159 -0.947009
vn 0.805574 0.092159 0.585284
vn 0.808951 0.01274 0.587738
vn 0.307702 0.092159 0.947009
vn 0.308992 0.012741 0.950979
vn -0.307701 0.092159 0.947009
vn -0.308992 0.012741 0.950979
vn -0.808951 0.01274 0.587738
vn -0.805574 0.092159 0.585284
vn -0.999919 0.01274 0
vn -0.995744 0.092159 0
vn -0.805574 0.092159 -0.585284
vn -0.808951 0.01274 -0.587738
vn -0.307702 0.092159 -0.947009
vn -0.308992 0.012741 -0.950979
vn 0.592623 -0.680743 -0.430566
vn 0.226362 -0.680743 -0.69667
vn -0.226362 -0.680744 -0.696669
vn -0.592623 -0.680743 -0.430566
vn -0.732523 -0.680743 -0
vn -0.592623 -0.680743 0.430566
vn -0.226362 -0.680743 0.69667
vn 0.226362 -0.680743 0.69667
vn 0.592623 -0.680743 0.430566
vn 0.732522 -0.680743 0
vn -0.28602 0.923627 0.255159
vn -0.400607 0.91625 0.000817
vn -0.287166 0.923134 -0.255654
vn -0.142687 0.90675 -0.396794
vn 0.138094 0.894593 -0.425011
vn 0.361534 0.894593 -0.26267
vn 0.446881 0.894594 -0
vn 0.361535 0.894593 0.26267
vn 0.138094 0.894593 0.425009
vn -0.142788 0.907012 0.396157
vn -0.147464 -0.983247 0.107139
vn -0.056326 -0.983247 0.173355
vn 0.056326 -0.983247 0.173355
vn 0.147464 -0.983247 0.107139
vn 0.182276 -0.983247 -0
vn 0.147464 -0.983247 -0.107139
vn 0.056326 -0.983247 -0.173355
vn -0.056326 -0.983247 -0.173355
vn -0.147464 -0.983248 -0.107139
vn -0.182276 -0.983248 0
vn -0.809017 0 0.587785
vn -0.309017 0 0.951056
vn 0.309018 -1e-06 0.951056
vn 0.809017 -1e-06 0.587785
vn 1 -0 0
vn 0.809017 -0 -0.587785
vn 0.309017 -1e-06 -0.951057
vn -0.309017 -2e-06 -0.951057
vn -0.809017 -1e-06 -0.587785
vn -1 0 -0
vn 0.177891 0.975526 -0.129245
vn 0.067948 0.975526 -0.209123
vn -0 1 -0
vn -0.067948 0.975526 -0.209123
vn -0.177891 0.975526 -0.129245
vn -0.219885 0.975526 0
vn -0.177891 0.975526 0.129245
vn -0.067948 0.975526 0.209124
vn 0.067948 0.975526 0.209123
vn 0.177891 0.975526 0.129245
vn 0.219885 0.975526 0
vn -0.801695 -0.345639 0.487667
vn -0.807496 -0.004879 0.589853
vn -0.93294 -0.360029 -0.001634
vn -1 -0.000302 5.7e-05
vn -0.317873 -0.363358 0.875744
vn -0.309926 -0.003321 0.950755
vn 0.309016 0.002643 0.951053
vn 0.289856 -0.346655 0.892084
vn 0.758852 -0.346655 0.551338
vn 0.809014 0.002643 0.587783
vn 0.937993 -0.346655 -0
vn 0.999997 0.002643 -0
vn 0.809014 0.002643 -0.587783
vn 0.758852 -0.346655 -0.551339
vn 0.309016 0.002643 -0.951053
vn 0.289855 -0.346655 -0.892084
vn -0.309905 -0.003182 -0.950762
vn -0.317239 -0.362936 -0.876149
vn -0.807511 -0.004638 -0.589835
vn -0.800884 -0.345618 -0.489012
vn -0.808765 0.024991 0.587601
vn -0.30892 0.024991 0.95076
vn 0.308921 0.024991 0.950759
vn 0.808764 0.024991 0.587601
vn 0.999688 0.024991 -0
vn 0.808764 0.024991 -0.587602
vn 0.30892 0.024991 -0.95076
vn -0.30892 0.024991 -0.950759
vn -0.808765 0.024991 -0.587602
vn -0.999688 0.024991 -0
vn -0.997414 -0.071872 -0.000563
vn -0.999002 -0.04467 0.000396
vn -0.998108 0.061492 -1.3e-05
vn -0.997403 0.042243 -0.058331
vn -0.99683 0.049926 0.06195
vn -0.995113 0.003866 0.098669
vn -0.960217 -0.278953 0.01301
vn -0.953181 -0.282633 0.107542
vn -0.964734 -0.263225 8.9e-05
vn -0.603536 -0.797332 -0.00234
vn -0.668886 -0.739821 0.072498
vn -0.146591 -0.989188 -0.004245
vn -0.089079 -0.996007 0.005982
vn -0.60047 -0.799588 0.009722
vn -0.34863 -0.936177 -0.045052
vn -0.947456 -0.319858 -0.004262
vn -0.759437 -0.642238 -0.103858
vn -0.952107 -0.285583 -0.109245
vn -0.992817 -0.062824 -0.101825
vn 0.807488 -0.261501 0.528754
vn 0.960682 -0.277542 0.00777
vn 0.783684 -0.373118 -0.49661
vt 0.490521 0.922463
vt 0.456311 0.946597
vt 0.438001 0.885571
vt 0.497945 0.869506
vt 0.463746 0.826916
vt 0.502129 0.798422
vt 0.561212 0.788296
vt 0.558172 0.844036
vt 0.561272 0.897851
vt 0.621056 0.806926
vt 0.606271 0.868108
vt 0.662774 0.848779
vt 0.675316 0.902671
vt 0.655343 0.954275
vt 0.610031 0.921603
vt 0.549566 0.950405
vt 0.608195 0.989887
vt 0.546355 1
vt 0.489305 0.981905
vt 0.153977 0.712465
vt 0.212983 0.755133
vt 0.11782 0.824601
vt 0.08116 0.712629
vt 0.022346 0.755562
vt 0 0.824866
vt 0.022657 0.894068
vt 0.081664 0.936737
vt 0.154481 0.936573
vt 0.213295 0.89364
vt 0.235641 0.824336
vt 0 0.345557
vt 0 0.329617
vt 0.077802 0.345557
vt 0.077802 0.329617
vt 0.800335 0.329617
vt 0.800335 0.345557
vt 0.72246 0.345557
vt 0.72246 0.329617
vt 0.642443 0.329617
vt 0.642443 0.345557
vt 0.561756 0.345557
vt 0.561756 0.329617
vt 0.480986 0.345557
vt 0.480986 0.329617
vt 0.400106 0.329617
vt 0.400106 0.345557
vt 0.319227 0.345557
vt 0.319227 0.329617
vt 0.23847 0.329617
vt 0.23847 0.345557
vt 0.157797 0.345557
vt 0.157797 0.329617
vt 0.72246 0.360763
vt 0.800335 0.360763
vt 0.642443 0.360763
vt 0.561756 0.360763
vt 0.480986 0.360763
vt 0.400106 0.360763
vt 0.319227 0.360763
vt 0.23847 0.360763
vt 0.157797 0.360763
vt 0.077802 0.360763
vt 0 0.360763
vt 0.800335 0.031433
vt 0.800335 0.047127
vt 0.72246 0.047127
vt 0.72246 0.031433
vt 0 0.047127
vt 0 0.031433
vt 0.077802 0.047127
vt 0.077802 0.031433
vt 0.642443 0.031433
vt 0.642443 0.047127
vt 0.561756 0.031433
vt 0.561756 0.047127
vt 0.480986 0.031433
vt 0.480986 0.047127
vt 0.400106 0.047127
vt 0.400106 0.031433
vt 0.319227 0.047127
vt 0.319227 0.031433
vt 0.23847 0.031433
vt 0.23847 0.047127
vt 0.157797 0.031433
vt 0.157797 0.047127
vt 0 0.01644
vt 0.077802 0.01644
vt 0.157797 0.01644
vt 0.23847 0.01644
vt 0.319227 0.01644
vt 0.400106 0.01644
vt 0.480986 0.01644
vt 0.561756 0.01644
vt 0.642443 0.01644
vt 0.72246 0.01644
vt 0.800335 0.01644
vt 0.800335 0.377197
vt 0.72246 0.377197
vt 0.642443 0.377197
vt 0.561756 0.377197
vt 0.480986 0.377197
vt 0.400106 0.377197
vt 0.319227 0.377197
vt 0.23847 0.377197
vt 0.157797 0.377197
vt 0.077802 0.377197
vt 0 0.377197
vt 0 0
vt 0.077802 0
vt 0.157797 0
vt 0.23847 0
vt 0.319227 0
vt 0.400106 0
vt 0.480986 0
vt 0.561756 0
vt 0.642443 0
vt 0.72246 0
vt 0.800335 0
vt 0.959686 0.328633
vt 0.95969 0.281262
vt 0.964344 0.281262
vt 0.96434 0.328634
vt 0.959682 0.409227
vt 0.964336 0.409227
vt 0.959682 0.456598
vt 0.964336 0.456598
vt 0.959682 0.533247
vt 0.964336 0.533247
vt 0.959682 0.609896
vt 0.964336 0.609896
vt 0.959682 0.657267
vt 0.964336 0.657267
vt 0.959673 0.080594
vt 0.959665 0
vt 0.964319 0
vt 0.964327 0.080593
vt 0.959677 0.127965
vt 0.964331 0.127965
vt 0.959684 0.204614
vt 0.964337 0.204613
vt 0.8696 0.904837
vt 0.804852 0.940214
vt 0.782786 0.822888
vt 0.731675 0.930777
vt 0.678021 0.88013
vt 0.664383 0.807618
vt 0.695972 0.740939
vt 0.76072 0.705562
vt 0.833897 0.714999
vt 0.887551 0.765646
vt 0.901189 0.838158
vt 0.152759 0.701121
vt 0.152759 0.687728
vt 0.223696 0.701121
vt 0.223696 0.687728
vt 0.074271 0.701121
vt 0.074271 0.687728
vt 0 0.687728
vt 0 0.701121
vt 0.7474 0.687728
vt 0.7474 0.701121
vt 0.672939 0.701121
vt 0.672939 0.687728
vt 0.59844 0.701121
vt 0.59844 0.687728
vt 0.523586 0.687728
vt 0.523586 0.701121
vt 0.448635 0.687728
vt 0.448635 0.701121
vt 0.373521 0.687728
vt 0.373521 0.701121
vt 0.294633 0.687728
vt 0.294633 0.701121
vt 0.152759 0.377197
vt 0.074271 0.377197
vt 0.672939 0.377197
vt 0.59844 0.377197
vt 0.523586 0.377197
vt 0.448635 0.377197
vt 0.373521 0.377197
vt 0.294633 0.377197
vt 0.223696 0.377197
vt 0.7474 0.377197
vt 0.074271 0.712465
vt 0.152759 0.712465
vt 0 0.712465
vt 0.7474 0.712465
vt 0.672939 0.712465
vt 0.59844 0.712465
vt 0.523586 0.712465
vt 0.448635 0.712465
vt 0.373521 0.712465
vt 0.298605 0.712465
vt 0.223696 0.712465
vt 0.294891 0.861159
vt 0.337562 0.890816
vt 0.276796 0.933226
vt 0.242803 0.890629
vt 0.328735 0.949872
vt 0.385527 0.935385
vt 0.388761 0.860632
vt 0.430589 0.892542
vt 0.347828 0.83018
vt 0.401536 0.798878
vt 0.453185 0.837125
vt 0.457731 0.787293
vt 0.418624 0.726057
vt 0.35785 0.768897
vt 0.346639 0.712456
vt 0.305034 0.802599
vt 0.302973 0.735446
vt 0.260346 0.775037
vt 0.236225 0.831863
vt 0.795724 0.508077
vt 0.790313 0.507583
vt 0.795355 0.452363
vt 0.800767 0.452857
vt 0.800398 0.397142
vt 0.80581 0.397637
vt 0.805784 0.338168
vt 0.811195 0.338662
vt 0.816903 0.276158
vt 0.811913 0.274448
vt 0.850209 0.226265
vt 0.847394 0.222156
vt 0.8954 0.206923
vt 0.896837 0.212164
vt 0.957278 0.191281
vt 0.958935 0.196448
vt 0.8965 0.74925
vt 0.892964 0.753366
vt 0.844538 0.711792
vt 0.840879 0.715556
vt 0.80481 0.685251
vt 0.799993 0.687257
vt 0.777574 0.630041
vt 0.782968 0.629381
vt 0.784945 0.567062
vt 0.790339 0.567051
usemtl blinn1SG
f 1/1/1 2/2/2 3/3/3
f 1/1/1 3/3/3 4/4/4
f 3/3/3 5/5/5 4/4/4
f 5/5/5 6/6/6 4/4/4
f 6/6/6 7/7/7 4/4/4
f 7/7/7 8/8/8 4/4/4
f 8/8/8 9/9/9 4/4/4
f 9/9/9 1/1/1 4/4/4
f 8/8/8 7/7/7 10/10/10
f 8/8/8 10/10/10 11/11/11
f 10/10/10 12/12/12 11/11/11
f 12/12/12 13/13/13 11/11/11
f 13/13/13 14/14/14 15/15/15
f 13/13/13 15/15/15 11/11/11
f 15/15/15 9/9/9 11/11/11
f 9/9/9 8/8/8 11/11/11
f 15/15/15 14/14/14 16/16/16
f 14/14/14 17/17/17 16/16/16
f 17/17/17 18/18/18 16/16/16
f 18/18/18 19/19/19 16/16/16
f 19/19/19 2/2/2 16/16/16
f 2/2/2 1/1/1 16/16/16
f 1/1/1 9/9/9 16/16/16
f 9/9/9 15/15/15 16/16/16
f 20/20/20 21/21/21 22/22/22
f 23/23/23 20/20/20 22/22/22
f 24/24/24 23/23/23 22/22/22
f 25/25/25 24/24/24 22/22/22
f 26/26/26 25/25/25 22/22/22
f 27/27/27 26/26/26 22/22/22
f 28/28/28 27/27/27 22/22/22
f 29/29/29 28/28/28 22/22/22
f 30/30/30 29/29/29 22/22/22
f 21/21/21 30/30/30 22/22/22
f 31/31/31 32/32/32 33/33/33
f 32/32/32 34/34/34 33/33/33
f 32/35/32 31/36/31 35/37/35
f 32/35/32 35/37/35 36/38/36
f 36/38/36 35/37/35 37/39/37
f 35/37/35 38/40/38 37/39/37
f 37/39/37 38/40/38 39/41/39
f 37/39/37 39/41/39 40/42/40
f 40/42/40 39/41/39 41/43/41
f 40/42/40 41/43/41 42/44/42
f 42/44/42 41/43/41 43/45/43
f 41/43/41 44/46/44 43/45/43
f 43/45/43 44/46/44 45/47/45
f 43/45/43 45/47/45 46/48/46
f 46/48/46 45/47/45 47/49/47
f 45/47/45 48/50/48 47/49/47
f 47/49/47 48/50/48 49/51/49
f 47/49/47 49/51/49 50/52/50
f 50/52/50 49/51/49 33/33/33
f 50/52/50 33/33/33 34/34/34
f 35/37/35 31/36/31 51/53/51
f 31/36/31 52/54/52 51/53/51
f 38/40/38 35/37/35 51/53/51
f 38/40/38 51/53/51 53/55/53
f 39/41/39 38/40/38 53/55/53
f 39/41/39 53/55/53 54/56/54
f 41/43/41 39/41/39 54/56/54
f 41/43/41 54/56/54 55/57/55
f 44/46/44 41/43/41 56/58/56
f 41/43/41 55/57/55 56/58/56
f 45/47/45 44/46/44 57/59/57
f 44/46/44 56/58/56 57/59/57
f 48/50/48 45/47/45 57/59/57
f 48/50/48 57/59/57 58/60/58
f 49/51/49 48/50/48 58/60/58
f 49/51/49 58/60/58 59/61/59
f 33/33/33 49/51/49 60/62/60
f 49/51/49 59/61/59 60/62/60
f 31/31/31 33/33/33 52/63/52
f 33/33/33 60/62/60 52/63/52
f 61/64/61 62/65/62 63/66/63
f 61/64/61 63/66/63 64/67/64
f 62/68/62 61/69/61 65/70/65
f 61/69/61 66/71/66 65/70/65
f 64/67/64 63/66/63 67/72/67
f 63/66/63 68/73/68 67/72/67
f 67/72/67 68/73/68 69/74/69
f 68/73/68 70/75/70 69/74/69
f 69/74/69 70/75/70 71/76/71
f 70/75/70 72/77/72 71/76/71
f 71/76/71 72/77/72 73/78/73
f 71/76/71 73/78/73 74/79/74
f 74/79/74 73/78/73 75/80/75
f 74/79/74 75/80/75 76/81/76
f 76/81/76 75/80/75 77/82/77
f 75/80/75 78/83/78 77/82/77
f 77/82/77 78/83/78 79/84/79
f 78/83/78 80/85/80 79/84/79
f 79/84/79 80/85/80 65/70/65
f 79/84/79 65/70/65 66/71/66
f 81/86/81 82/87/82 61/69/61
f 82/87/82 66/71/66 61/69/61
f 82/87/82 83/88/83 79/84/79
f 82/87/82 79/84/79 66/71/66
f 83/88/83 84/89/84 79/84/79
f 84/89/84 77/82/77 79/84/79
f 84/89/84 85/90/85 77/82/77
f 85/90/85 76/81/76 77/82/77
f 85/90/85 86/91/86 74/79/74
f 85/90/85 74/79/74 76/81/76
f 86/91/86 87/92/87 71/76/71
f 86/91/86 71/76/71 74/79/74
f 87/92/87 88/93/88 71/76/71
f 88/93/88 69/74/69 71/76/71
f 88/93/88 89/94/89 69/74/69
f 89/94/89 67/72/67 69/74/69
f 89/94/89 90/95/90 64/67/64
f 89/94/89 64/67/64 67/72/67
f 90/95/90 81/96/81 61/64/61
f 90/95/90 61/64/61 64/67/64
f 63/66/63 62/65/62 32/35/32
f 63/66/63 32/35/32 36/38/36
f 68/73/68 63/66/63 36/38/36
f 68/73/68 36/38/36 37/39/37
f 70/75/70 68/73/68 37/39/37
f 70/75/70 37/39/37 40/42/40
f 72/77/72 70/75/70 40/42/40
f 72/77/72 40/42/40 42/44/42
f 73/78/73 72/77/72 42/44/42
f 73/78/73 42/44/42 43/45/43
f 75/80/75 73/78/73 43/45/43
f 75/80/75 43/45/43 46/48/46
f 78/83/78 75/80/75 46/48/46
f 78/83/78 46/48/46 47/49/47
f 80/85/80 78/83/78 47/49/47
f 80/85/80 47/49/47 50/52/50
f 65/70/65 80/85/80 50/52/50
f 65/70/65 50/52/50 34/34/34
f 62/68/62 65/70/65 34/34/34
f 62/68/62 34/34/34 32/32/32
f 91/97/91 92/98/92 51/53/51
f 91/97/91 51/53/51 52/54/52
f 92/98/92 93/99/93 51/53/51
f 93/99/93 53/55/53 51/53/51
f 93/99/93 94/100/94 53/55/53
f 94/100/94 54/56/54 53/55/53
f 94/100/94 95/101/95 55/57/55
f 94/100/94 55/57/55 54/56/54
f 95/101/95 96/102/96 56/58/56
f 95/101/95 56/58/56 55/57/55
f 96/102/96 97/103/97 57/59/57
f 96/102/96 57/59/57 56/58/56
f 97/103/97 98/104/98 57/59/57
f 98/104/98 58/60/58 57/59/57
f 98/104/98 99/105/99 58/60/58
f 99/105/99 59/61/59 58/60/58
f 99/105/99 100/106/100 60/62/60
f 99/105/99 60/62/60 59/61/59
f 100/106/100 91/107/91 60/62/60
f 91/107/91 52/63/52 60/62/60
f 101/108/101 102/109/102 82/87/82
f 101/108/101 82/87/82 81/86/81
f 102/109/102 103/110/103 82/87/82
f 103/110/103 83/88/83 82/87/82
f 103/110/103 104/111/104 84/89/84
f 103/110/103 84/89/84 83/88/83
f 104/111/104 105/112/105 85/90/85
f 104/111/104 85/90/85 84/89/84
f 105/112/105 106/113/106 85/90/85
f 106/113/106 86/91/86 85/90/85
f 106/113/106 107/114/107 86/91/86
f 107/114/107 87/92/87 86/91/86
f 107/114/107 108/115/108 88/93/88
f 107/114/107 88/93/88 87/92/87
f 108/115/108 109/116/109 89/94/89
f 108/115/108 89/94/89 88/93/88
f 109/116/109 110/117/110 90/95/90
f 109/116/109 90/95/90 89/94/89
f 110/117/110 101/118/101 90/95/90
f 101/118/101 81/96/81 90/95/90
f 102/119/102 101/120/101 21/121/111
f 102/119/102 21/121/111 20/122/112
f 103/123/103 102/119/102 20/122/112
f 103/123/103 20/122/112 23/124/113
f 104/125/104 103/123/103 23/124/113
f 104/125/104 23/124/113 24/126/114
f 105/127/105 104/125/104 24/126/114
f 105/127/105 24/126/114 25/128/115
f 106/129/106 105/127/105 25/128/115
f 106/129/106 25/128/115 26/130/116
f 107/131/107 106/129/106 26/130/116
f 107/131/107 26/130/116 27/132/117
f 108/133/108 107/134/107 27/135/117
f 108/133/108 27/135/117 28/136/118
f 109/137/109 108/133/108 28/136/118
f 109/137/109 28/136/118 29/138/119
f 110/139/110 109/137/109 29/138/119
f 110/139/110 29/138/119 30/140/120
f 101/120/101 110/139/110 30/140/120
f 101/120/101 30/140/120 21/121/111
f 21/141/121 20/142/122 111/143/123
f 20/142/122 23/144/124 111/143/123
f 23/144/124 24/145/125 111/143/123
f 24/145/125 25/146/126 111/143/123
f 25/146/126 26/147/127 111/143/123
f 26/147/127 27/148/128 111/143/123
f 27/148/128 28/149/129 111/143/123
f 28/149/129 29/150/130 111/143/123
f 29/150/130 30/151/131 111/143/123
f 30/151/131 21/141/121 111/143/123
f 5/152/132 112/153/133 3/154/134
f 112/153/133 113/155/135 3/154/134
f 112/153/133 5/152/132 114/156/136
f 112/153/133 114/156/136 115/157/137
f 115/157/137 114/156/136 116/158/138
f 114/156/136 117/159/139 116/158/138
f 116/160/138 117/161/139 118/162/140
f 116/160/138 118/162/140 119/163/141
f 119/163/141 118/162/140 120/164/142
f 119/163/141 120/164/142 121/165/143
f 121/165/143 120/164/142 122/166/144
f 120/164/142 123/167/145 122/166/144
f 122/166/144 123/167/145 124/168/146
f 123/167/145 125/169/147 124/168/146
f 124/168/146 125/169/147 126/170/148
f 125/169/147 127/171/149 126/170/148
f 126/170/148 127/171/149 128/172/150
f 127/171/149 2/173/151 128/172/150
f 128/172/150 2/173/151 3/154/134
f 128/172/150 3/154/134 113/155/135
f 21/174/152 112/153/133 115/157/137
f 21/174/152 115/157/137 20/175/153
f 20/175/153 115/157/137 116/158/138
f 20/175/153 116/158/138 23/107/154
f 24/176/155 119/163/141 25/177/156
f 119/163/141 121/165/143 25/177/156
f 25/177/156 121/165/143 122/166/144
f 25/177/156 122/166/144 26/178/157
f 26/178/157 122/166/144 27/179/158
f 122/166/144 124/168/146 27/179/158
f 27/179/158 124/168/146 28/180/159
f 124/168/146 126/170/148 28/180/159
f 28/180/159 126/170/148 128/172/150
f 28/180/159 128/172/150 29/181/160
f 29/181/160 128/172/150 30/182/161
f 128/172/150 113/155/135 30/182/161
f 30/182/161 113/155/135 112/153/133
f 30/182/161 112/153/133 21/174/152
f 23/183/154 116/160/138 119/163/141
f 23/183/154 119/163/141 24/176/155
f 114/156/136 5/152/132 100/184/100
f 5/152/132 91/185/91 100/184/100
f 117/159/139 114/156/136 100/184/100
f 117/159/139 100/184/100 99/186/99
f 118/162/140 117/161/139 99/187/99
f 118/162/140 99/187/99 98/188/98
f 120/164/142 118/162/140 98/188/98
f 120/164/142 98/188/98 97/189/97
f 123/167/145 120/164/142 97/189/97
f 123/167/145 97/189/97 96/190/96
f 125/169/147 123/167/145 96/190/96
f 125/169/147 96/190/96 95/191/95
f 127/171/149 125/169/147 95/191/95
f 127/171/149 95/191/95 94/192/94
f 2/173/151 127/171/149 94/192/94
f 2/173/151 94/192/94 93/193/93
f 3/154/134 2/173/151 93/193/93
f 3/154/134 93/193/93 92/194/92
f 5/152/132 3/154/134 91/185/91
f 3/154/134 92/194/92 91/185/91
f 129/195/162 130/196/163 131/197/164
f 129/195/162 131/197/164 132/198/165
f 131/197/164 130/196/163 133/199/166
f 130/196/163 134/200/167 133/199/166
f 134/200/167 130/196/163 135/201/168
f 134/200/167 135/201/168 136/202/169
f 135/201/168 130/196/163 137/203/170
f 130/196/163 129/195/162 137/203/170
f 135/201/168 138/204/171 139/205/172
f 135/201/168 139/205/172 136/202/169
f 139/205/172 138/204/171 140/206/173
f 138/204/171 141/207/174 140/206/173
f 141/207/174 138/204/171 142/208/175
f 141/207/174 142/208/175 143/209/176
f 142/208/175 138/204/171 135/201/168
f 142/208/175 135/201/168 137/203/170
f 142/208/175 144/210/177 143/209/176
f 144/210/177 145/211/178 143/209/176
f 145/211/178 144/210/177 146/212/179
f 144/210/177 147/213/180 146/212/179
f 147/213/180 144/210/177 129/195/162
f 147/213/180 129/195/162 132/198/165
f 129/195/162 144/210/177 137/203/170
f 144/210/177 142/208/175 137/203/170
f 12/214/12 132/215/165 131/216/164
f 12/214/12 131/216/164 13/217/13
f 13/217/13 131/216/164 133/218/166
f 13/217/13 133/218/166 14/219/14
f 14/219/14 133/218/166 134/220/167
f 14/219/14 134/220/167 17/221/17
f 17/221/17 134/220/167 18/222/18
f 134/220/167 136/223/169 18/222/18
f 18/222/18 136/223/169 19/224/19
f 136/223/169 139/225/172 19/224/19
f 19/224/19 139/225/172 140/226/173
f 19/224/19 140/226/173 2/227/181
f 2/227/181 140/226/173 141/228/174
f 2/227/181 141/228/174 3/229/182
f 3/230/182 141/231/174 5/232/183
f 141/231/174 143/233/176 5/232/183
f 5/232/183 143/233/176 6/234/6
f 143/233/176 145/235/178 6/234/6
f 6/234/6 145/235/178 146/236/179
f 6/234/6 146/236/179 7/237/7
f 7/237/7 146/236/179 147/238/180
f 7/237/7 147/238/180 10/239/10
f 10/239/10 147/238/180 132/215/165
f 10/239/10 132/215/165 12/214/12
s off
