# Apple ModelIO OBJ File: plastic_fork
mtllib plastic_fork.mtl
g polySurface2_initialShadingGroup
v 0.014281 0.054269 0.501749
v 0.039472 0.069108 0.449676
v 0.014306 0.085061 0.374926
v 0.052401 0.085015 0.374933
v 0.014298 0.090399 0.08756
v 0.04287 0.090391 0.087566
v 0.042858 0.055827 -0.069392
v 0.014286 0.055827 -0.069392
v -0.014291 0.054315 0.501747
v -0.014266 0.085095 0.374921
v -0.014273 0.090407 0.087555
v -0.014285 0.055828 -0.069392
v -0.042849 0.069226 0.449665
v -0.052361 0.085141 0.374914
v -0.042845 0.090415 0.087549
v -0.042857 0.055828 -0.069392
v 0.014201 0.003312 0.485625
v 0.014244 0.032381 0.365902
v 0.039399 0.017319 0.436462
v 0.05234 0.032336 0.365902
v 0.014282 0.037422 0.094636
v 0.042853 0.037413 0.094636
v 0.042857 0.002505 -0.073053
v 0.014285 0.002505 -0.073053
v -0.014371 0.003356 0.485626
v -0.014327 0.032414 0.365901
v -0.014289 0.03743 0.094635
v -0.014286 0.002505 -0.073054
v -0.042921 0.017434 0.436465
v -0.052422 0.032458 0.365901
v -0.042861 0.037439 0.094634
v -0.042857 0.002506 -0.073054
v -0.099999 0.069191 -0.177847
v -0.071428 0.061616 -0.128359
v -0.099998 0.080762 -0.233574
v -0.071427 0.080761 -0.233575
v -0.099495 0.109956 -0.320093
v -0.070923 0.109954 -0.320093
v -0.085708 0.168079 -0.467794
v 0.07143 0.080755 -0.233576
v 0.071429 0.061613 -0.128359
v 0.100002 0.080754 -0.233576
v 0.100001 0.069185 -0.177849
v 0.08572 0.168065 -0.467798
v 0.071934 0.109945 -0.320096
v 0.100505 0.109943 -0.320096
v 0.042858 0.058127 -0.097251
v 0.071429 0.058126 -0.097251
v 0.042859 0.080756 -0.233576
v 0.014287 0.080757 -0.233575
v 0.014286 0.058127 -0.097251
v 0.028577 0.16807 -0.467797
v 0.014791 0.109949 -0.320095
v 0.043363 0.109947 -0.320095
v -0.014285 0.058128 -0.097251
v -0.014284 0.080759 -0.233575
v -0.042856 0.08076 -0.233575
v -0.042857 0.058128 -0.097251
v -0.028566 0.168074 -0.467795
v -0.042352 0.109952 -0.320094
v -0.01378 0.109951 -0.320094
v -0.087474 0.061092 -0.124185
v -0.071428 0.058129 -0.097251
v 0.087515 0.061088 -0.124186
v -0.100001 0.016574 -0.187236
v -0.100001 0.028757 -0.245907
v -0.071429 0.0086 -0.135133
v -0.071429 0.028756 -0.245907
v -0.099498 0.060414 -0.340149
v -0.085713 0.12069 -0.492511
v -0.070927 0.060412 -0.340149
v 0.071428 0.02875 -0.245907
v 0.099999 0.028748 -0.245907
v 0.071428 0.008597 -0.135133
v 0.099999 0.016568 -0.187236
v 0.085716 0.120676 -0.492514
v 0.100502 0.060401 -0.340151
v 0.07193 0.060403 -0.340151
v 0.071428 0.004925 -0.102383
v 0.042857 0.004926 -0.102383
v 0.014285 0.004926 -0.102383
v 0.042856 0.028751 -0.245907
v 0.014285 0.028752 -0.245907
v 0.028573 0.12068 -0.492513
v 0.043359 0.060405 -0.34015
v 0.014788 0.060407 -0.34015
v -0.014286 0.004927 -0.102383
v -0.014286 0.028753 -0.245907
v -0.042858 0.004927 -0.102383
v -0.042858 0.028754 -0.245907
v -0.02857 0.120685 -0.492512
v -0.013784 0.060409 -0.34015
v -0.042355 0.06041 -0.34015
v -0.087476 0.008048 -0.130739
v -0.071429 0.004928 -0.102383
v 0.087514 0.008044 -0.130739
vn 0.461054 0.613414 0.641211
vn 0.73258 0.573776 0.366207
vn -0.004852 0.996975 0.077574
vn 0.819134 0.571615 0.047703
vn 0.000567 0.998116 -0.06136
vn 0.833135 0.550927 -0.048644
vn 0.909683 0.412494 0.048216
vn 0.000142 0.985094 -0.172017
vn -0.443403 0.612889 0.654035
vn 0.006646 0.99686 0.078902
vn 0.000567 0.99811 -0.061445
vn 0.000142 0.985086 -0.172062
vn -0.720723 0.588559 0.366275
vn -0.811053 0.583454 0.042125
vn -0.832575 0.551758 -0.048798
vn -0.909598 0.412688 0.048178
vn 0.472485 -0.833587 0.286165
vn 0.004532 -0.996976 -0.077582
vn 0.777981 -0.621904 0.089341
vn 0.869845 -0.492653 -0.025765
vn -0.000547 -0.99797 0.063683
vn 0.874071 -0.485706 0.009494
vn 0.803853 -0.551022 0.224044
vn -0.000138 -0.98667 0.162736
vn -0.459026 -0.836805 0.298417
vn -0.006323 -0.996861 -0.078913
vn -0.000546 -0.997965 0.063768
vn -0.000138 -0.986663 0.162777
vn -0.769496 -0.633248 0.082906
vn -0.866245 -0.498318 -0.036031
vn -0.874565 -0.484815 0.00952
vn -0.803949 -0.55086 0.224095
vn -0.838079 0.511977 0.18842
vn -0.026048 0.985967 0.164898
vn -0.868352 0.47993 0.125027
vn 0.517544 0.854662 0.041242
vn -0.942912 0.32692 0.063565
vn 0.943403 0.325559 0.063255
vn -0.000161 0.555469 -0.831537
vn -0.517588 0.854903 0.035264
vn 0.026099 0.985971 0.164866
vn 0.867725 0.479494 0.130918
vn 0.838103 0.512046 0.188128
vn -0.00016 0.555449 -0.831551
vn -0.942913 0.32692 0.063552
vn 0.943404 0.325559 0.063243
vn 0.007698 0.988692 0.14976
vn 0.762738 0.165871 0.625074
vn 0.474744 0.878486 0.053674
vn -0.451552 0.890768 0.051311
vn 2.7e-05 0.988667 0.150123
vn -0.00016 0.555456 -0.831546
vn -0.942913 0.32692 0.063557
vn 0.943404 0.325559 0.063247
vn 2.7e-05 0.988667 0.150128
vn 0.451499 0.890493 0.056319
vn -0.474804 0.878752 0.048536
vn -0.007643 0.988691 0.149773
vn -0.000159 0.555462 -0.831542
vn -0.942912 0.32692 0.063561
vn 0.943404 0.32556 0.063251
vn -0.913204 0.217678 0.344493
vn -0.763027 0.165746 0.624755
vn 0.91311 0.218058 0.3445
vn -0.805492 -0.592272 -0.019896
vn -0.826953 -0.542524 -0.147701
vn 0.027435 -0.985937 -0.164848
vn 0.481518 -0.81054 -0.333416
vn -0.936648 -0.30765 -0.167458
vn 0.000202 0.248588 -0.968609
vn 0.937353 -0.305761 -0.166975
vn -0.482162 -0.808315 -0.337854
vn 0.825881 -0.545405 -0.143017
vn -0.027485 -0.985941 -0.164815
vn 0.805429 -0.592349 -0.020177
vn 0.000202 0.248565 -0.968615
vn 0.937352 -0.305769 -0.166964
vn -0.936647 -0.307659 -0.167448
vn 0.764411 -0.291282 0.575179
vn -0.00788 -0.988723 -0.149551
vn -2.7e-05 -0.988667 -0.150123
vn 0.398005 -0.861906 -0.314182
vn -0.393581 -0.865373 -0.310199
vn 0.000203 0.248572 -0.968613
vn 0.937352 -0.305766 -0.166968
vn -0.936647 -0.307656 -0.167451
vn -2.7e-05 -0.988667 -0.150128
vn 0.393018 -0.866998 -0.306352
vn 0.007826 -0.988721 -0.149564
vn -0.398577 -0.860166 -0.318201
vn 0.000204 0.24858 -0.968611
vn 0.937352 -0.305763 -0.166971
vn -0.936647 -0.307653 -0.167455
vn -0.908889 -0.31703 0.270949
vn -0.76471 -0.291055 0.574896
vn 0.90876 -0.31747 0.270866
vt 0.293979 0
vt 0.319962 0.053709
vt 0.294005 0.130806
vt 0.333297 0.130799
vt 0.293998 0.427198
vt 0.323466 0.427193
vt 0.323454 0.589081
vt 0.293985 0.58908
vt 0.264511 2e-06
vt 0.264536 0.130812
vt 0.264529 0.427204
vt 0.264516 0.58908
vt 0.235056 0.05372
vt 0.225245 0.130819
vt 0.23506 0.42721
vt 0.235047 0.58908
vt 0.493265 0.999998
vt 0.49331 0.8776
vt 0.519027 0.949736
vt 0.532257 0.8776
vt 0.493349 0.600272
vt 0.522559 0.600272
vt 0.522562 0.428835
vt 0.493352 0.428835
vt 0.464055 1
vt 0.4641 0.877599
vt 0.464139 0.600271
vt 0.464142 0.428835
vt 0.434867 0.94974
vt 0.425154 0.877599
vt 0.434929 0.60027
vt 0.434932 0.428835
vt 0.133601 0.270481
vt 0.133601 0.254515
vt 0.148204 0.254515
vt 0.148204 0.270481
vt 0.133601 0.233973
vt 0.148204 0.233973
vt 0.133601 0.160584
vt 0.148204 0.160584
vt 0.133601 0.121068
vt 0.148204 0.121068
vt 0.133601 0.278302
vt 0.148204 0.278302
vt 0.133601 0.294696
vt 0.148204 0.294696
vt 0.133601 0.315124
vt 0.148204 0.315124
vt 0.133601 0.388772
vt 0.148204 0.388772
vt 0.133601 0.428565
vt 0.148204 0.428565
vt 0.17611 0.700942
vt 0.205579 0.649899
vt 0.176111 0.758419
vt 0.20558 0.75842
vt 0.176631 0.847655
vt 0.2061 0.847655
vt 0.19085 0.999996
vt 0.352924 0.758421
vt 0.352923 0.6499
vt 0.382393 0.758421
vt 0.382392 0.700944
vt 0.367663 1
vt 0.353444 0.847658
vt 0.382913 0.847659
vt 0.323454 0.617814
vt 0.352923 0.617814
vt 0.323455 0.758421
vt 0.293986 0.758421
vt 0.293985 0.617814
vt 0.308725 0.999998
vt 0.294506 0.847657
vt 0.323975 0.847658
vt 0.264516 0.617814
vt 0.264517 0.75842
vt 0.235049 0.75842
vt 0.235048 0.617814
vt 0.249787 0.999997
vt 0.235568 0.847656
vt 0.265037 0.847657
vt 0.189028 0.645594
vt 0.205579 0.617814
vt 0.369514 0.645595
vt 0.376512 0.3121
vt 0.376512 0.252118
vt 0.405722 0.365368
vt 0.405722 0.252118
vt 0.377026 0.15577
vt 0.391119 4e-06
vt 0.406236 0.15577
vt 0.551772 0.252118
vt 0.580981 0.252118
vt 0.551772 0.365368
vt 0.580982 0.312101
vt 0.566379 0
vt 0.581495 0.155768
vt 0.552285 0.155768
vt 0.551772 0.39885
vt 0.522562 0.39885
vt 0.493352 0.39885
vt 0.522562 0.252118
vt 0.493352 0.252118
vt 0.507959 1e-06
vt 0.523075 0.155769
vt 0.493865 0.155769
vt 0.464142 0.39885
vt 0.464142 0.252118
vt 0.434932 0.39885
vt 0.434932 0.252118
vt 0.449539 2e-06
vt 0.464656 0.155769
vt 0.435446 0.15577
vt 0.389317 0.36986
vt 0.405722 0.39885
vt 0.568217 0.36986
vt 0.133601 0.479371
vt 0.133601 0.463462
vt 0.148204 0.479371
vt 0.148204 0.463462
vt 0.133601 0.594337
vt 0.133601 0.549671
vt 0.148204 0.549671
vt 0.148204 0.594337
vt 0.133601 0.505471
vt 0.148204 0.505471
vt 0.133601 0.086253
vt 0.133601 0.070365
vt 0.148204 0.086253
vt 0.148204 0.070365
vt 0.133601 1
vt 0.133601 0.955583
vt 0.148204 1
vt 0.148204 0.955583
vt 0.133601 0.044261
vt 0.133601 0
vt 0.148204 0
vt 0.148204 0.044261
vt 0.133601 0.849646
vt 0.133601 0.805382
vt 0.148204 0.849646
vt 0.148204 0.805382
vt 0.133601 0.894636
vt 0.148204 0.894636
vt 0.133601 0.779002
vt 0.133601 0.770817
vt 0.148204 0.779002
vt 0.148204 0.770817
vt 0.133601 0.699518
vt 0.133601 0.655077
vt 0.148204 0.699518
vt 0.148204 0.655077
vt 0.133601 0.744256
vt 0.148204 0.744256
vt 0.133601 0.628716
vt 0.133601 0.620774
vt 0.148204 0.628716
vt 0.148204 0.620774
vt 0.133601 0.921229
vt 0.148204 0.921229
vt 0.133601 0.929198
vt 0.148204 0.929198
vt 0.133601 0.448022
vt 0.133601 0.439396
vt 0.148204 0.448022
vt 0.148204 0.439396
vt 0.133601 0.110268
vt 0.133601 0.101658
vt 0.148204 0.101658
vt 0.148204 0.110268
usemtl initialShadingGroup
f 1/1/1 2/2/2 3/3/3
f 2/2/2 4/4/4 3/3/3
f 5/5/5 3/3/3 6/6/6
f 3/3/3 4/4/4 6/6/6
f 7/7/7 8/8/8 5/5/5
f 7/7/7 5/5/5 6/6/6
f 9/9/9 1/1/1 3/3/3
f 9/9/9 3/3/3 10/10/10
f 11/11/11 10/10/10 3/3/3
f 11/11/11 3/3/3 5/5/5
f 8/8/8 12/12/12 5/5/5
f 12/12/12 11/11/11 5/5/5
f 13/13/13 9/9/9 10/10/10
f 13/13/13 10/10/10 14/14/14
f 15/15/15 14/14/14 11/11/11
f 14/14/14 10/10/10 11/11/11
f 12/12/12 16/16/16 11/11/11
f 16/16/16 15/15/15 11/11/11
f 17/17/17 18/18/18 19/19/19
f 18/18/18 20/20/20 19/19/19
f 21/21/21 22/22/22 20/20/20
f 21/21/21 20/20/20 18/18/18
f 23/23/23 22/22/22 24/24/24
f 22/22/22 21/21/21 24/24/24
f 25/25/25 26/26/26 17/17/17
f 26/26/26 18/18/18 17/17/17
f 27/27/27 21/21/21 18/18/18
f 27/27/27 18/18/18 26/26/26
f 24/24/24 21/21/21 28/28/28
f 21/21/21 27/27/27 28/28/28
f 29/29/29 30/30/30 26/26/26
f 29/29/29 26/26/26 25/25/25
f 31/31/31 27/27/27 30/30/30
f 27/27/27 26/26/26 30/30/30
f 28/28/28 27/27/27 31/31/31
f 28/28/28 31/31/31 32/32/32
f 17/33/17 19/34/19 2/35/2
f 17/33/17 2/35/2 1/36/1
f 19/34/19 20/37/20 2/35/2
f 20/37/20 4/38/4 2/35/2
f 20/37/20 22/39/22 4/38/4
f 22/39/22 6/40/6 4/38/4
f 22/39/22 23/41/23 7/42/7
f 22/39/22 7/42/7 6/40/6
f 25/43/25 17/33/17 9/44/9
f 17/33/17 1/36/1 9/44/9
f 29/45/29 25/43/25 9/44/9
f 29/45/29 9/44/9 13/46/13
f 30/47/30 29/45/29 14/48/14
f 29/45/29 13/46/13 14/48/14
f 31/49/31 30/47/30 14/48/14
f 31/49/31 14/48/14 15/50/15
f 32/51/32 31/49/31 16/52/16
f 31/49/31 15/50/15 16/52/16
f 33/53/33 34/54/34 35/55/35
f 34/54/34 36/56/36 35/55/35
f 37/57/37 38/58/38 39/59/39
f 40/60/40 41/61/41 42/62/42
f 41/61/41 43/63/43 42/62/42
f 44/64/44 45/65/45 46/66/46
f 41/61/41 47/67/47 48/68/48
f 47/67/47 49/69/49 50/70/50
f 47/67/47 50/70/50 51/71/51
f 52/72/52 53/73/53 54/74/54
f 51/71/51 50/70/50 55/75/55
f 50/70/50 56/76/56 55/75/55
f 55/75/55 56/76/56 57/77/57
f 55/75/55 57/77/57 58/78/58
f 59/79/59 60/80/60 61/81/61
f 58/78/58 57/77/57 36/56/36
f 58/78/58 36/56/36 34/54/34
f 35/55/35 36/56/36 37/57/37
f 36/56/36 38/58/38 37/57/37
f 61/81/61 60/80/60 57/77/57
f 61/81/61 57/77/57 56/76/56
f 54/74/54 53/73/53 49/69/49
f 53/73/53 50/70/50 49/69/49
f 46/66/46 45/65/45 40/60/40
f 46/66/46 40/60/40 42/62/42
f 62/82/62 63/83/63 33/53/33
f 63/83/63 34/54/34 33/53/33
f 43/63/43 41/61/41 48/68/48
f 43/63/43 48/68/48 64/84/64
f 41/61/41 40/60/40 47/67/47
f 40/60/40 49/69/49 47/67/47
f 58/78/58 34/54/34 63/83/63
f 47/67/47 7/7/7 48/68/48
f 51/71/51 8/8/8 7/7/7
f 51/71/51 7/7/7 47/67/47
f 55/75/55 12/12/12 8/8/8
f 55/75/55 8/8/8 51/71/51
f 58/78/58 16/16/16 12/12/12
f 58/78/58 12/12/12 55/75/55
f 63/83/63 16/16/16 58/78/58
f 65/85/65 66/86/66 67/87/67
f 66/86/66 68/88/68 67/87/67
f 69/89/69 70/90/70 71/91/71
f 72/92/72 73/93/73 74/94/74
f 73/93/73 75/95/75 74/94/74
f 76/96/76 77/97/77 78/98/78
f 74/94/74 79/99/79 80/100/80
f 80/100/80 81/101/81 82/102/82
f 81/101/81 83/103/83 82/102/82
f 84/104/84 85/105/85 86/106/86
f 81/101/81 87/107/87 88/108/88
f 81/101/81 88/108/88 83/103/83
f 87/107/87 89/109/89 90/110/90
f 87/107/87 90/110/90 88/108/88
f 91/111/91 92/112/92 93/113/93
f 89/109/89 67/87/67 68/88/68
f 89/109/89 68/88/68 90/110/90
f 66/86/66 69/89/69 71/91/71
f 66/86/66 71/91/71 68/88/68
f 92/112/92 88/108/88 90/110/90
f 92/112/92 90/110/90 93/113/93
f 85/105/85 82/102/82 86/106/86
f 82/102/82 83/103/83 86/106/86
f 77/97/77 73/93/73 72/92/72
f 77/97/77 72/92/72 78/98/78
f 94/114/94 65/85/65 95/115/95
f 65/85/65 67/87/67 95/115/95
f 75/95/75 96/116/96 79/99/79
f 75/95/75 79/99/79 74/94/74
f 74/94/74 80/100/80 72/92/72
f 80/100/80 82/102/82 72/92/72
f 89/109/89 95/115/95 67/87/67
f 80/100/80 79/99/79 23/23/23
f 81/101/81 80/100/80 23/23/23
f 81/101/81 23/23/23 24/24/24
f 87/107/87 81/101/81 24/24/24
f 87/107/87 24/24/24 28/28/28
f 89/109/89 87/107/87 32/32/32
f 87/107/87 28/28/28 32/32/32
f 95/115/95 89/109/89 32/32/32
f 66/117/66 65/118/65 35/119/35
f 65/118/65 33/120/33 35/119/35
f 71/121/71 70/122/70 39/123/39
f 71/121/71 39/123/39 38/124/38
f 70/122/70 69/125/69 39/123/39
f 69/125/69 37/126/37 39/123/39
f 75/127/75 73/128/73 43/129/43
f 73/128/73 42/130/42 43/129/43
f 76/131/76 78/132/78 44/133/44
f 78/132/78 45/134/45 44/133/44
f 77/135/77 76/136/76 44/137/44
f 77/135/77 44/137/44 46/138/46
f 84/139/84 86/140/86 52/141/52
f 86/140/86 53/142/53 52/141/52
f 85/143/85 84/139/84 52/141/52
f 85/143/85 52/141/52 54/144/54
f 83/145/83 88/146/88 50/147/50
f 88/146/88 56/148/56 50/147/50
f 91/149/91 93/150/93 59/151/59
f 93/150/93 60/152/60 59/151/59
f 92/153/92 91/149/91 59/151/59
f 92/153/92 59/151/59 61/154/61
f 90/155/90 68/156/68 57/157/57
f 68/156/68 36/158/36 57/157/57
f 68/156/68 71/121/71 36/158/36
f 71/121/71 38/124/38 36/158/36
f 69/125/69 66/117/66 35/119/35
f 69/125/69 35/119/35 37/126/37
f 93/150/93 90/155/90 57/157/57
f 93/150/93 57/157/57 60/152/60
f 88/146/88 92/153/92 56/148/56
f 92/153/92 61/154/61 56/148/56
f 86/140/86 83/145/83 50/147/50
f 86/140/86 50/147/50 53/142/53
f 82/159/82 85/143/85 49/160/49
f 85/143/85 54/144/54 49/160/49
f 78/132/78 72/161/72 40/162/40
f 78/132/78 40/162/40 45/134/45
f 73/128/73 77/135/77 42/130/42
f 77/135/77 46/138/46 42/130/42
f 94/163/94 95/164/95 62/165/62
f 95/164/95 63/166/63 62/165/62
f 65/118/65 94/163/94 62/165/62
f 65/118/65 62/165/62 33/120/33
f 79/167/79 96/168/96 64/169/64
f 79/167/79 64/169/64 48/170/48
f 96/168/96 75/127/75 64/169/64
f 75/127/75 43/129/43 64/169/64
f 72/161/72 82/159/82 49/160/49
f 72/161/72 49/160/49 40/162/40
f 23/41/23 79/167/79 7/42/7
f 79/167/79 48/170/48 7/42/7
f 95/164/95 32/51/32 16/52/16
f 95/164/95 16/52/16 63/166/63
s off
